<?xml version="1.0" encoding="UTF-8"?>
<svg width="36px" height="36px" viewBox="0 0 36 36" version="1.1" xmlns="http://www.w3.org/2000/svg" xmlns:xlink="http://www.w3.org/1999/xlink">
    <title>流量计</title>
    <g id="页面-1" stroke="none" stroke-width="1" fill="none" fill-rule="evenodd">
        <g id="gis切图" transform="translate(-108.000000, -993.000000)">
            <g id="流量计" transform="translate(108.000000, 993.000000)">
                <g id="编组" transform="translate(6.000000, 2.250000)">
                    <ellipse id="椭圆形备份" fill="#4A4A4A" cx="11.8636364" cy="30.6477273" rx="2.96590909" ry="1"></ellipse>
                    <g id="GIS底图" fill="#1A82E3" fill-rule="nonzero" stroke="#1771C3" stroke-width="0.99">
                        <path d="M8.6236121,0.967187459 C10.8421607,0.30754877 13.2616734,0.323808474 15.557431,1.11251501 C17.8532215,1.90123284 19.7719548,3.37538239 21.1167296,5.25923208 C22.4614628,7.14302349 23.2322727,9.43649044 23.2322727,11.8639248 C23.2322727,14.153767 22.5546559,16.2758799 21.4124089,18.063293 L12.5016352,29.9221348 L2.33284326,18.0618615 C1.01274345,16.0318134 0.408175462,13.6949697 0.505026116,11.3875672 C0.602090762,9.07506648 1.40367706,6.7921373 2.89557807,4.87725026 C4.38747908,2.96236323 6.40506351,1.62682615 8.6236121,0.967187459 Z" id="形状"></path>
                    </g>
                    <g id="GIS-图例、图层icon_流量计" transform="translate(2.454545, 1.636364)" fill="#FFFFFF" fill-rule="nonzero">
                        <rect id="矩形" opacity="0" x="0" y="0" width="19.2272727" height="19.2272727"></rect>
                        <path d="M14.9972727,15.4164235 L13.9820765,15.4164235 C13.9144994,15.4180531 13.8602225,15.4726695 13.8590144,15.5402554 L13.8590144,16.1032164 C13.8578067,16.1707952 13.8035408,16.2254089 13.7359711,16.2270483 L12.7907554,16.2270483 C12.7231784,16.2254188 12.6689015,16.1708023 12.6676934,16.1032164 L12.6676934,15.5402554 C12.6664856,15.4726766 12.6122198,15.418063 12.5446501,15.4164235 L12.1001133,15.4164235 C12.0325434,15.4147943 11.9782693,15.360189 11.9770512,15.2926104 L11.9770512,11.8932136 C11.9782693,11.825635 12.0325434,11.7710296 12.1001133,11.7694004 L12.5446501,11.7694004 C12.6122198,11.767761 12.6664856,11.7131473 12.6676934,11.6455685 L12.6676934,11.0818377 C12.6689015,11.0142518 12.7231784,10.9596353 12.7907554,10.9580058 L13.7359711,10.9580058 C13.8035408,10.9596452 13.8578067,11.0142589 13.8590144,11.0818377 L13.8590144,11.6455685 C13.8602225,11.7131544 13.9144994,11.7677709 13.9820765,11.7694004 L14.9972727,11.7694004 C15.0648426,11.7710296 15.1191167,11.825635 15.1203348,11.8932136 L15.1203348,15.2918406 C15.1191167,15.3594191 15.0648426,15.4140245 14.9972727,15.4156537 L14.9972727,15.4164235 Z M10.8872554,10.6250022 C10.8912433,10.636898 10.8933158,10.649352 10.8933954,10.6618983 L10.8933954,11.6548066 C10.8946134,11.7223852 10.9488875,11.7769906 11.0164574,11.7786198 L11.1702756,11.7786198 C11.2380224,11.7798531 11.2925268,11.8346985 11.2933377,11.9024517 L11.2933377,15.3049091 C11.2921296,15.372495 11.2378526,15.4271114 11.1702756,15.428741 L11.0164574,15.428741 C10.9488875,15.4303702 10.8946134,15.4849755 10.8933954,15.5525541 L10.8933954,15.6894545 C10.8925969,15.7573334 10.8382155,15.8124036 10.7703521,15.8140563 L8.54537735,15.8140563 C8.47750658,15.8124135 8.42311411,15.7573405 8.4223153,15.6894545 L8.4223153,15.5463954 C8.42109725,15.4788168 8.36682314,15.4242115 8.29925324,15.4225823 L8.12928715,15.4225823 C8.06171746,15.4209428 8.00745161,15.3663291 8.00624387,15.2987504 L8.00624387,11.9032215 C8.00705449,11.8354755 8.0615477,11.780633 8.12928715,11.7793896 L8.29927202,11.7793896 C8.36684192,11.7777604 8.42111603,11.723155 8.42233407,11.6555765 L8.42233407,10.661917 C8.42212975,10.6578138 8.42212975,10.6537028 8.42233407,10.6495996 C6.64309234,10.1076199 5.42891279,8.46412564 5.43364346,6.60417387 C5.43440838,4.27461328 7.30638241,2.38418182 9.61365514,2.38418182 C11.9209279,2.38418182 13.7929152,4.27461328 13.7929152,6.60419265 C13.7974749,8.43353225 12.6224729,10.0573421 10.883425,10.6249834 L10.8872554,10.6250022 Z M9.61363636,3.72083403 C8.44498875,3.70960815 7.38515628,4.4049425 6.93013243,5.48142593 C6.47510859,6.55790935 6.7149067,7.80259067 7.5373031,8.63296856 C8.35969949,9.46334644 9.60200678,9.71515459 10.6828346,9.27054872 C11.7636625,8.82594285 12.4692004,7.7728754 12.4693076,6.60417387 C12.4735553,5.84295539 12.1749596,5.11127546 11.6392922,4.57041281 C11.1036248,4.02955015 10.3748608,3.72390658 9.61363636,3.72085281 L9.61363636,3.72083403 Z M11.0372244,7.06485858 C11.0372244,7.06023952 11.0372244,7.06485858 11.0318355,7.06485858 L10.8272641,6.48419118 L10.3373441,7.89469189 C10.3087525,7.98098095 10.2311138,8.04164056 10.1404711,8.04851008 L10.126614,8.04851008 C10.0416714,8.04845122 9.96413686,8.00014685 9.92664284,7.92392711 L9.42598269,6.90717241 L9.306,7.08868612 C9.26375752,7.15315706 9.18875772,7.18828097 9.11218759,7.17945237 L7.21484632,7.17945237 C7.08993374,7.16730125 6.99465482,7.06230414 6.99465482,6.93680194 C6.99465482,6.81129973 7.08993374,6.70630262 7.21484632,6.6941515 L8.98375542,6.6941515 L9.24292929,6.2780613 C9.28292352,6.2065411 9.35752308,6.20885063 9.43828138,6.20885063 L9.44290044,6.20885063 C9.525385,6.20834023 9.60080648,6.25532338 9.63671285,6.32958438 L10.0889293,7.24481383 L10.6134545,5.74431672 C10.6451575,5.65591458 10.7303233,5.59810529 10.8241847,5.60127632 C10.9187814,5.60127632 11.0033889,5.61280518 11.0349149,5.7027828 L11.400233,6.69107213 L11.9632128,6.69107213 C12.0881254,6.70322325 12.1834044,6.80822036 12.1834044,6.93372257 C12.1834044,7.05922477 12.0881254,7.16422188 11.9632128,7.176373 L11.2425657,7.176373 C11.1569444,7.18562792 11.0747473,7.14006479 11.0372244,7.06254905 L11.0372244,7.06485858 Z M5.49976984,11.6447987 L5.49976984,10.9479978 C5.50098789,10.8804193 5.555262,10.8258139 5.6228319,10.8241847 L6.56879869,10.8241847 C6.63637573,10.8258143 6.69065265,10.8804307 6.69186075,10.9480166 L6.69186075,11.6448175 C6.6930788,11.712396 6.74735291,11.7670014 6.81492281,11.7686306 L7.19330953,11.7686306 C7.26104178,11.7698737 7.31553213,11.824705 7.31635281,11.8924437 L7.31635281,15.2910707 C7.31513513,15.3586422 7.26087208,15.4132447 7.19330953,15.4148838 L6.81492281,15.4148838 C6.74734577,15.4165134 6.69306886,15.4711298 6.69186075,15.5387157 L6.69186075,15.9778636 C6.69065265,16.0454495 6.63637573,16.100066 6.56879869,16.1016955 L5.62360174,16.1016955 C5.55603204,16.1000561 5.5017662,16.0454424 5.50055846,15.9778636 L5.50055846,15.5387157 C5.49935036,15.4711298 5.44507344,15.4165134 5.3774964,15.4148838 L4.23,15.4148838 C4.1624301,15.4132546 4.10815599,15.3586493 4.10693794,15.2910707 L4.10693794,11.8932136 C4.10693794,11.8247359 4.16154249,11.7687526 4.23,11.7670909 L5.37747763,11.7670909 C5.44447364,11.765495 5.4985234,11.7117834 5.50053968,11.6447987 L5.49976984,11.6447987 Z" id="形状"></path>
                    </g>
                </g>
            </g>
        </g>
    </g>
</svg>