<?xml version="1.0" encoding="UTF-8"?>
<svg width="36px" height="36px" viewBox="0 0 36 36" version="1.1" xmlns="http://www.w3.org/2000/svg" xmlns:xlink="http://www.w3.org/1999/xlink">
    <title>压力站</title>
    <g id="页面-1" stroke="none" stroke-width="1" fill="none" fill-rule="evenodd">
        <g id="gis切图" transform="translate(-108.000000, -1049.000000)">
            <g id="压力站" transform="translate(108.000000, 1049.000000)">
                <g id="编组" transform="translate(6.000000, 2.250000)">
                    <ellipse id="椭圆形备份" fill="#4A4A4A" cx="11.8636364" cy="30.6477273" rx="2.96590909" ry="1"></ellipse>
                    <g id="GIS底图" fill="#1A82E3" fill-rule="nonzero" stroke="#1771C3" stroke-width="0.99">
                        <path d="M8.6236121,0.967187459 C10.8421607,0.30754877 13.2616734,0.323808474 15.557431,1.11251501 C17.8532215,1.90123284 19.7719548,3.37538239 21.1167296,5.25923208 C22.4614628,7.14302349 23.2322727,9.43649044 23.2322727,11.8639248 C23.2322727,14.153767 22.5546559,16.2758799 21.4124089,18.063293 L12.5016352,29.9221348 L2.33284326,18.0618615 C1.01274345,16.0318134 0.408175462,13.6949697 0.505026116,11.3875672 C0.602090762,9.07506648 1.40367706,6.7921373 2.89557807,4.87725026 C4.38747908,2.96236323 6.40506351,1.62682615 8.6236121,0.967187459 Z" id="形状"></path>
                    </g>
                </g>
                <g id="表务系统备份" transform="translate(10.000000, 6.000000)" fill="#FFFFFF" fill-rule="nonzero">
                    <rect id="矩形" opacity="0" x="0" y="0" width="17" height="17"></rect>
                    <path d="M7.08498621,8.49250584 L8.10498551,8.49250584 C6.03748693,8.49250584 4.35998808,6.81500699 4.35998808,4.74750841 L3.94248837,4.74750841 C3.85248843,4.94750827 3.69748854,5.08750818 3.50998867,5.08750818 C3.22998886,5.08750818 2.99998902,4.78250839 2.99998902,4.40500865 C2.99998902,4.0300089 3.22998886,3.72250911 3.50998867,3.72250911 C3.69748854,3.72250911 3.85498843,3.86250902 3.94248837,4.06250888 L4.42498804,4.06250888 C4.74748782,2.32001008 6.26998677,1.00001098 8.10498551,1.00001098 C10.1724841,1.00001098 11.8499829,2.67750983 11.8499829,4.74500841 C11.8499829,6.81250699 10.1749841,8.49250584 8.10748551,8.49250584 L9.12748481,8.49250584 L7.08498621,8.49250584 Z M11.1674834,4.74750841 C11.1674834,3.05500957 9.79748435,1.68501051 8.10498551,1.68501051 C6.41248668,1.68501051 5.03998762,3.05500957 5.03998762,4.74750841 C5.03998762,6.44000725 6.41248668,7.81250631 8.10498551,7.81250631 C9.79748435,7.81250631 11.1674834,6.44000725 11.1674834,4.74750841 Z M7.76248575,6.79000701 C7.76248575,6.79000701 7.73998576,4.74000842 8.10248552,4.06500888 C8.47998526,4.73750842 8.44248528,6.79000701 8.44248528,6.79000701 C8.44248528,6.98000688 8.28998539,7.13000677 8.10248552,7.13000677 C7.91498564,7.13000677 7.76248575,6.98000688 7.76248575,6.79000701 L7.76248575,6.79000701 Z M9.46498458,3.04500958 C9.65498445,3.04500958 9.80498435,3.19750947 9.80498435,3.38500935 C9.80498435,3.57250922 9.65248445,3.72500911 9.46498458,3.72500911 C9.27498471,3.72500911 9.12498481,3.57250922 9.12498481,3.38500935 C9.12498481,3.19750947 9.27748471,3.04500958 9.46498458,3.04500958 Z M10.1474841,4.40750864 C10.337484,4.40750864 10.4874839,4.56000854 10.4874839,4.74750841 C10.4874839,4.93500828 10.334984,5.08750818 10.1474841,5.08750818 C9.95998424,5.08750818 9.80748435,4.93500828 9.80748435,4.74750841 C9.80748435,4.56000854 9.95748424,4.40750864 10.1474841,4.40750864 L10.1474841,4.40750864 Z M8.10498551,3.04500958 C7.91498564,3.04500958 7.76498575,2.89250968 7.76498575,2.70500981 C7.76498575,2.51500994 7.91748564,2.36501005 8.10498551,2.36501005 C8.29248538,2.36501005 8.44498528,2.51750994 8.44498528,2.70500981 C8.44498528,2.89500968 8.28998539,3.04500958 8.10498551,3.04500958 Z M6.74248645,3.72750911 C6.55248658,3.72750911 6.40248668,3.57500921 6.40248668,3.38750934 C6.40248668,3.20000947 6.55498658,3.04750958 6.74248645,3.04750958 C6.92998632,3.04750958 7.08248622,3.20000947 7.08248622,3.38750934 C7.07998622,3.57250922 6.92998632,3.72750911 6.74248645,3.72750911 Z M6.06248692,5.08750818 C5.87248705,5.08750818 5.72248715,4.93500828 5.72248715,4.74750841 C5.72248715,4.56000854 5.87498704,4.40750864 6.06248692,4.40750864 C6.24998679,4.40750864 6.40248668,4.56000854 6.40248668,4.74750841 C6.40248668,4.93500828 6.24748679,5.08750818 6.06248692,5.08750818 L6.06248692,5.08750818 Z" id="形状"></path>
                    <polygon id="路径-2" points="6.99998902 8.50001098 6.99998902 8.00001098 9.49998902 8.00001098 9.49998902 8.50001098 11.999989 8.50001098 11.999989 10.000011 14.999989 10.000011 14.999989 12.000011 11.999989 12.000011 11.999989 13.500011 4.99998902 13.500011 4.99998902 12.000011 1.99998902 12.000011 1.99998902 10.000011 4.99998902 10.000011 4.99998902 8.50001098"></polygon>
                </g>
            </g>
        </g>
    </g>
</svg>