<?xml version="1.0" encoding="UTF-8"?>
<svg width="40px" height="52px" viewBox="0 0 40 52" version="1.1" xmlns="http://www.w3.org/2000/svg" xmlns:xlink="http://www.w3.org/1999/xlink">
    <title>雨量水位一体化站</title>
    <defs>
        <filter x="0.0%" y="-0.0%" width="100.0%" height="100.0%" filterUnits="objectBoundingBox" id="filter-1">
            <feOffset dx="0" dy="0" in="SourceAlpha" result="shadowOffsetOuter1"></feOffset>
            <feColorMatrix values="0 0 0 0 0.541176471   0 0 0 0 0.945098039   0 0 0 0 1  0 0 0 0.496063019 0" type="matrix" in="shadowOffsetOuter1" result="shadowMatrixOuter1"></feColorMatrix>
            <feMerge>
                <feMergeNode in="shadowMatrixOuter1"></feMergeNode>
                <feMergeNode in="SourceGraphic"></feMergeNode>
            </feMerge>
        </filter>
        <path d="M19.728882,0.000669211278 C28.759361,-0.0518335735 36.1360022,7.20667642 36.2278821,16.2437183 C36.2541335,19.7810934 35.1253236,23.2331515 33.0120865,26.0748647 C31.1285491,28.5031185 26.6986267,33.0380465 26.035779,33.8058998 C25.4844998,34.5803158 20.6083036,40.3228079 19.8338875,41.313798 C19.7223191,41.4188036 19.7223191,41.4188036 19.6107507,41.313798 C18.8363346,40.4278135 15.1808282,35.7878799 13.074154,33.4711945 C10.9674798,31.0429407 7.64667862,27.9452764 6.09784647,25.7401595 C4.1224292,23.0100146 3.0723735,19.7154649 3.10518774,16.3487238 C3.13143913,11.977867 4.90340812,7.79733275 8.02076097,4.72591984 C11.1446767,1.66106978 15.3514623,-0.0387078773 19.728882,0.000669211278 Z M29.8256783,35.1836693 L40,40.804406 L19.9969683,51.8579152 L0,40.804406 L10.0894346,35.2261129 L14.2428377,38.7125461 L10.0894346,40.7983427 L19.9969683,46.2978121 L29.819615,40.804406 L25.9269365,38.7186095 L29.8256783,35.1836693 Z" id="path-2"></path>
        <filter x="-6.2%" y="-4.8%" width="112.5%" height="109.6%" filterUnits="objectBoundingBox" id="filter-3">
            <feMorphology radius="1" operator="erode" in="SourceAlpha" result="shadowSpreadInner1"></feMorphology>
            <feGaussianBlur stdDeviation="2" in="shadowSpreadInner1" result="shadowBlurInner1"></feGaussianBlur>
            <feOffset dx="0" dy="0" in="shadowBlurInner1" result="shadowOffsetInner1"></feOffset>
            <feComposite in="shadowOffsetInner1" in2="SourceAlpha" operator="arithmetic" k2="-1" k3="1" result="shadowInnerInner1"></feComposite>
            <feColorMatrix values="0 0 0 0 0.876854496   0 0 0 0 0.746681436   0 0 0 0 0  0 0 0 1 0" type="matrix" in="shadowInnerInner1"></feColorMatrix>
        </filter>
    </defs>
    <g id="页面-1" stroke="none" stroke-width="1" fill="none" fill-rule="evenodd">
        <g id="天气icon" transform="translate(-1169.000000, -86.000000)" fill-rule="nonzero">
            <g id="雨量水位一体化站" filter="url(#filter-1)" transform="translate(1169.000000, 86.000000)">
                <g id="形状">
                    <use fill="#001642" xlink:href="#path-2"></use>
                    <use fill="black" fill-opacity="1" filter="url(#filter-3)" xlink:href="#path-2"></use>
                </g>
                <path d="M15.8692193,8 L15.8692193,23.4758826 L15.9229239,23.4311288 C16.6837394,22.8582795 17.7309796,22.8582795 18.4917951,23.4311288 L18.4917951,23.4311288 L19.2078568,23.9771258 C19.4405768,24.1561412 19.7807061,24.1561412 20.0223769,23.9771258 L20.0223769,23.9771258 L20.7384386,23.4311288 C21.4903033,22.8582795 22.5464943,22.8582795 23.3073098,23.4311288 L23.3073098,23.4311288 L24.0233715,23.9771258 C24.2560915,24.1561412 24.5962208,24.1561412 24.8378916,23.9771258 L24.8378916,23.9771258 L25.5539533,23.4311288 C26.305818,22.8582795 27.362009,22.8582795 28.1228245,23.4311288 L28.1228245,23.4311288 L28.8388861,23.9771258 C28.9015415,24.0218797 28.9731477,24.0576827 29,24.0755843 L29,24.0755843 L29,25.5435107 C28.6240676,25.5077076 28.2481353,25.373446 27.9259075,25.1317752 L27.9259075,25.1317752 L27.2098458,24.5857782 C26.9771258,24.397812 26.6369965,24.4067628 26.3953257,24.5857782 L26.3953257,24.5857782 L25.679264,25.1317752 C24.9273993,25.7046246 23.8712084,25.7046246 23.1103928,25.1317752 L23.1103928,25.1317752 L22.3943312,24.5857782 C22.1616111,24.397812 21.8214818,24.4067628 21.579811,24.5857782 L21.579811,24.5857782 L20.8637494,25.1317752 C20.1118846,25.7046246 19.0556937,25.7046246 18.2948782,25.1317752 L18.2948782,25.1317752 L17.5788165,24.5857782 C17.3460965,24.4067628 17.0059672,24.4067628 16.7642964,24.5857782 L16.7642964,24.5857782 L15.8334162,25.2928891 L15.8334162,25.9015415 L11,25.9015415 L11,24.4425659 L14.3923421,24.4425659 L14.3923421,21.5335654 L12.5932372,21.5335654 L12.5932372,20.0835405 L14.3833913,20.0835405 L14.3833913,17.4430632 L11,17.4430632 L11,15.9930383 L14.3923421,15.9930383 L14.3923421,13.4241671 L12.5932372,13.4241671 L12.5932372,11.9741422 L14.3833913,11.9741422 L14.3833913,9.45002486 L11,9.45002486 L11,8 L15.8692193,8 Z M26.5474888,20.6653406 C26.8607658,20.9786176 26.8965689,21.4530085 26.6369965,21.7125808 L25.9477872,22.4017902 C25.8224764,22.5271009 25.6345102,22.5808056 25.446544,22.5718548 C25.2585778,22.5539533 25.0616609,22.4644455 24.900547,22.3122824 C24.58727,21.9990055 24.5514669,21.5246146 24.8110393,21.2650423 L25.5002486,20.5758329 C25.7687718,20.3073098 26.2342118,20.3520636 26.5474888,20.6653406 Z M21.5977126,20.9338637 C21.9109896,21.2471407 21.9467926,21.7215316 21.6872203,21.9811039 L21.3202387,22.3480855 C21.1949279,22.4733963 21.0069617,22.5360517 20.8189955,22.5181502 C20.6310293,22.5002486 20.4341124,22.4107409 20.2729985,22.2585778 C19.9597215,21.9453008 19.9239184,21.47091 20.1834908,21.2113376 L20.5504724,20.844356 C20.8189955,20.5758329 21.2844356,20.6205868 21.5977126,20.9338637 Z M24.2113376,18.3202387 C24.5246146,18.6335157 24.5604177,19.1079065 24.3008454,19.3674789 L23.611636,20.0566882 C23.4773744,20.181999 23.298359,20.2446544 23.1103928,20.2267529 C22.9224267,20.2088513 22.7255097,20.1193436 22.5643958,19.9671805 C22.2511188,19.6539035 22.2153158,19.1795127 22.4748881,18.9199403 L23.1640975,18.230731 C23.4326206,17.9622079 23.8980607,18.0069617 24.2113376,18.3202387 Z M19.2526106,18.5887618 C19.5658876,18.9020388 19.6016907,19.3764296 19.3421183,19.636002 L18.9751367,20.0029836 C18.849826,20.1372452 18.6708105,20.1909498 18.4738936,20.1730482 C18.2859274,20.1551467 18.0890104,20.065639 17.9278966,19.9134759 C17.6146196,19.6001989 17.5788165,19.1258081 17.8383889,18.8662357 L18.2053705,18.4992541 C18.4738936,18.230731 18.9393337,18.2754848 19.2526106,18.5887618 Z M21.8662357,15.9840875 C22.1795127,16.2973645 22.2153158,16.7717553 21.9557434,17.0313277 L21.2665341,17.720537 C21.1412233,17.8458478 20.9532571,17.8995525 20.7652909,17.8906017 C20.5773247,17.8727001 20.3804078,17.7831924 20.2192939,17.6310293 C19.9060169,17.3177524 19.8702138,16.8433615 20.1297862,16.5837892 L20.8189955,15.8945798 C21.0875186,15.6260567 21.5529587,15.6708105 21.8662357,15.9840875 Z M26.8249627,15.7066136 C27.1382397,16.0198906 27.1740428,16.4942815 26.9144704,16.7538538 L26.2252611,17.4430632 C26.0909995,17.5683739 25.9119841,17.6310293 25.7240179,17.6131278 C25.5360517,17.5952263 25.3391348,17.5057185 25.1780209,17.3535554 C24.8647439,17.0402785 24.8289408,16.5658876 25.0885132,16.3063153 L25.7777225,15.6171059 C26.0462456,15.3485828 26.5116857,15.3933366 26.8249627,15.7066136 Z M19.5211338,13.6389856 C19.8344107,13.9522626 19.8702138,14.4266534 19.6106415,14.6862258 L18.9214321,15.3754351 C18.7961213,15.5007459 18.6171059,15.5634013 18.420189,15.5454998 C18.2322228,15.5275982 18.0353058,15.4380905 17.8741919,15.2859274 C17.560915,14.9726504 17.5251119,14.4982596 17.7846842,14.2386872 L18.4738936,13.5494779 C18.7424167,13.2809547 19.2078568,13.3257086 19.5211338,13.6389856 Z M24.4798608,13.3704625 C24.7931377,13.6837394 24.8289408,14.1581303 24.5693685,14.4177026 L23.8801591,15.106912 C23.7548483,15.2322228 23.5668821,15.2859274 23.378916,15.2769766 C23.1909498,15.2590751 22.9940328,15.1695674 22.8329189,15.0174043 C22.519642,14.7041273 22.4838389,14.2297364 22.7434112,13.9701641 L23.4326206,13.2809547 C23.7011437,13.0124316 24.1665838,13.0571855 24.4798608,13.3704625 Z M22.1437096,11.0253605 C22.4569866,11.3386375 22.4927897,11.8130283 22.2332173,12.0726007 L21.544008,12.76181 C21.4097464,12.8871208 21.230731,12.9497762 21.0427648,12.9318747 C20.8547986,12.9139731 20.6578817,12.8244654 20.4967678,12.6723023 C20.1834908,12.3590254 20.1476877,11.8846345 20.4072601,11.6250622 L21.0964694,10.9358528 C21.3649925,10.6673297 21.8304326,10.7120835 22.1437096,11.0253605 Z M27.0934858,10.7568374 C27.4067628,11.0701144 27.4425659,11.5445052 27.1829935,11.8040776 L26.4937842,12.4932869 C26.3684734,12.6185977 26.1805072,12.6723023 25.992541,12.6633516 C25.8045748,12.64545 25.6076579,12.5559423 25.446544,12.4037792 C25.133267,12.0905022 25.0974639,11.6161114 25.3570363,11.356539 L26.0462456,10.6673297 C26.3147688,10.3988066 26.7802089,10.4435604 27.0934858,10.7568374 Z M19.7986077,8.68025858 C20.1118846,8.99353555 20.1476877,9.4679264 19.8881154,9.72749876 L19.2078568,10.4167081 C19.0735952,10.5509697 18.885629,10.6046743 18.6976629,10.5867727 C18.5096967,10.5688712 18.3127797,10.4793635 18.1516658,10.3272004 C17.8383889,10.0139234 17.8025858,9.53953257 18.0621581,9.27996022 L18.7513675,8.59075087 C19.0198906,8.32222775 19.4853307,8.3669816 19.7986077,8.68025858 Z M24.7573347,8.41173545 C25.0706116,8.72501243 25.1064147,9.19940328 24.8468424,9.45897563 L24.157633,10.148185 C24.0233715,10.2734958 23.844356,10.3361512 23.6563899,10.3182496 C23.4684237,10.3003481 23.2715067,10.2108404 23.1103928,10.0586773 C22.7971159,9.7454003 22.7613128,9.27100945 23.0208851,9.0114371 L23.7100945,8.32222775 C23.9786176,8.05370462 24.4440577,8.09845848 24.7573347,8.41173545 Z" fill="#FFE034"></path>
            </g>
        </g>
    </g>
</svg>