<?xml version="1.0" encoding="UTF-8"?>
<svg width="40px" height="52px" viewBox="0 0 40 52" version="1.1" xmlns="http://www.w3.org/2000/svg" xmlns:xlink="http://www.w3.org/1999/xlink">
    <title>流量站</title>
    <defs>
        <filter x="0.0%" y="-0.0%" width="100.0%" height="100.0%" filterUnits="objectBoundingBox" id="filter-1">
            <feOffset dx="0" dy="0" in="SourceAlpha" result="shadowOffsetOuter1"></feOffset>
            <feColorMatrix values="0 0 0 0 0.541176471   0 0 0 0 0.945098039   0 0 0 0 1  0 0 0 0.496063019 0" type="matrix" in="shadowOffsetOuter1" result="shadowMatrixOuter1"></feColorMatrix>
            <feMerge>
                <feMergeNode in="shadowMatrixOuter1"></feMergeNode>
                <feMergeNode in="SourceGraphic"></feMergeNode>
            </feMerge>
        </filter>
        <path d="M19.728882,0.000669211278 C28.759361,-0.0518335735 36.1360022,7.20667642 36.2278821,16.2437183 C36.2541335,19.7810934 35.1253236,23.2331515 33.0120865,26.0748647 C31.1285491,28.5031185 26.6986267,33.0380465 26.035779,33.8058998 C25.4844998,34.5803158 20.6083036,40.3228079 19.8338875,41.313798 C19.7223191,41.4188036 19.7223191,41.4188036 19.6107507,41.313798 C18.8363346,40.4278135 15.1808282,35.7878799 13.074154,33.4711945 C10.9674798,31.0429407 7.64667862,27.9452764 6.09784647,25.7401595 C4.1224292,23.0100146 3.0723735,19.7154649 3.10518774,16.3487238 C3.13143913,11.977867 4.90340812,7.79733275 8.02076097,4.72591984 C11.1446767,1.66106978 15.3514623,-0.0387078773 19.728882,0.000669211278 Z M29.8256783,35.1836693 L40,40.804406 L19.9969683,51.8579152 L0,40.804406 L10.0894346,35.2261129 L14.2428377,38.7125461 L10.0894346,40.7983427 L19.9969683,46.2978121 L29.819615,40.804406 L25.9269365,38.7186095 L29.8256783,35.1836693 Z" id="path-2"></path>
        <filter x="-6.2%" y="-4.8%" width="112.5%" height="109.6%" filterUnits="objectBoundingBox" id="filter-3">
            <feMorphology radius="1" operator="erode" in="SourceAlpha" result="shadowSpreadInner1"></feMorphology>
            <feGaussianBlur stdDeviation="2" in="shadowSpreadInner1" result="shadowBlurInner1"></feGaussianBlur>
            <feOffset dx="0" dy="0" in="shadowBlurInner1" result="shadowOffsetInner1"></feOffset>
            <feComposite in="shadowOffsetInner1" in2="SourceAlpha" operator="arithmetic" k2="-1" k3="1" result="shadowInnerInner1"></feComposite>
            <feColorMatrix values="0 0 0 0 0.876854496   0 0 0 0 0.746681436   0 0 0 0 0  0 0 0 1 0" type="matrix" in="shadowInnerInner1"></feColorMatrix>
        </filter>
    </defs>
    <g id="页面-1" stroke="none" stroke-width="1" fill="none" fill-rule="evenodd">
        <g id="天气icon" transform="translate(-1229.000000, -86.000000)" fill-rule="nonzero">
            <g id="流量站" filter="url(#filter-1)" transform="translate(1229.000000, 86.000000)">
                <g id="形状">
                    <use fill="#001642" xlink:href="#path-2"></use>
                    <use fill="black" fill-opacity="1" filter="url(#filter-3)" xlink:href="#path-2"></use>
                </g>
                <path d="M27.6527108,25.6918397 L26.1402254,25.6918397 C26.0412915,25.6918397 25.9564448,25.7775352 25.9564448,25.8774797 L25.9564448,26.719519 C25.9564448,26.8193623 25.8716993,26.9051589 25.7727654,26.9051589 L24.3591936,26.9051589 C24.2602799,26.9051589 24.1754333,26.8193825 24.1754333,26.719519 L24.1754333,25.8774797 C24.1754333,25.777515 24.0905664,25.6918397 23.9916326,25.6918397 L23.3273912,25.6918397 C23.2283563,25.6918397 23.1436107,25.6061442 23.1436107,25.5061998 L23.1436107,20.4250417 C23.1436107,20.3250973 23.2283563,20.2395028 23.3273912,20.2395028 L23.9916326,20.2395028 C24.0905664,20.2395028 24.1754333,20.1538275 24.1754333,20.0539639 L24.1754333,19.2117225 C24.1754333,19.1118791 24.2602799,19.0261836 24.3592138,19.0261836 L25.7727654,19.0261836 C25.8716993,19.0261836 25.9564448,19.1118791 25.9564448,19.2117225 L25.9564448,20.0539639 C25.9564448,20.1538275 26.0412915,20.2395028 26.1402254,20.2395028 L27.6527108,20.2395028 C27.7516447,20.2395028 27.8364913,20.3250973 27.8364913,20.4250417 L27.8364913,25.5061998 C27.8364913,25.6061644 27.7516447,25.6918397 27.6527108,25.6918397 L27.6527108,25.6918397 Z M21.5083018,18.5285433 C21.5140822,18.5462483 21.5180031,18.5645596 21.5180031,18.5838007 L21.5180031,20.0682532 C21.5180031,20.1680966 21.6027689,20.2537921 21.7018039,20.2537921 L21.9279066,20.2537921 C22.0269415,20.2537921 22.1116871,20.3393664 22.1116871,20.43923 L22.1116871,25.5204689 C22.1116871,25.6204335 22.0269415,25.7060078 21.9279066,25.7060078 L21.7018039,25.7060078 C21.6027689,25.7060078 21.5180233,25.7918044 21.5180233,25.8917488 L21.5180233,26.1056642 C21.5180233,26.2056288 21.4332778,26.2914052 21.3342428,26.2914052 L18.0123895,26.2914052 C17.9134556,26.2914052 17.828609,26.2056288 17.828609,26.1056642 L17.828609,25.891769 C17.828609,25.7918044 17.7438432,25.706028 17.6449295,25.706028 L17.3903289,25.706028 C17.2914153,25.706028 17.2066495,25.6204335 17.2066495,25.5204891 L17.2066495,20.4392097 C17.2066495,20.3393664 17.2914153,20.2537719 17.3903289,20.2537719 L17.6449093,20.2537719 C17.7438229,20.2537719 17.8285888,20.1680764 17.8285888,20.068233 L17.8285888,18.5838007 C17.8285888,18.5773938 17.8299227,18.5712698 17.8305492,18.5650851 C15.2478803,17.790713 13.3619322,15.375979 13.3619322,12.517609 C13.3619322,9.03495528 16.1606791,6.20888283 19.6097216,6.20888283 C23.0728311,6.20888283 25.857511,9.03495528 25.857511,12.517609 C25.857511,15.3318175 24.0296094,17.7164166 21.5083018,18.5285433 Z M19.6097216,8.20710424 C17.2491132,8.20710424 15.3408115,10.1340407 15.3408115,12.5176292 C15.3408115,14.9012177 17.2491132,16.828134 19.6097216,16.828134 C21.9702289,16.828134 23.8785306,14.9011975 23.8785306,12.5176292 C23.8785306,10.1340407 21.9702289,8.20710424 19.6097216,8.20710424 Z M21.0655955,13.459714 C20.9243393,14.1447729 20.3448638,14.6729321 19.6663332,14.7442373 C18.7049871,14.8442019 17.8992673,14.1019251 17.8711333,13.1600424 C17.8569451,12.5461877 18.2244252,11.9894497 18.7615785,11.6897782 C19.2422616,11.4329342 19.6663332,11.4614926 20.0337931,11.5898136 L21.9138396,9.60588146 L21.9420949,9.60588146 L22.0410085,9.67716639 L20.7263908,12.0894144 C21.0232934,12.4463443 21.1787176,12.9315547 21.0655955,13.4597342 L21.0655955,13.459714 Z M13.4608661,20.0539639 L13.4608661,19.0119145 C13.4608661,18.9120509 13.5456116,18.8263756 13.6445455,18.8263756 L15.0580971,18.8263756 C15.157132,18.8263756 15.2418776,18.9120509 15.2418776,19.0119145 L15.2418776,20.0539639 C15.2418776,20.1538275 15.3266232,20.2395028 15.4256581,20.2395028 L15.9911677,20.2395028 C16.0901218,20.2395028 16.1748674,20.3250973 16.1748674,20.4250417 L16.1748674,25.5061998 C16.1748674,25.6061644 16.0901218,25.6918397 15.9911879,25.6918397 L15.4256581,25.6918397 C15.3266232,25.6918397 15.2418776,25.7775352 15.2418776,25.8774797 L15.2418776,26.5339801 C15.2418776,26.6338235 15.157132,26.719519 15.0580971,26.719519 L13.6445253,26.719519 C13.5456116,26.719519 13.4608661,26.6338235 13.4608661,26.5339801 L13.4608661,25.8774797 C13.4608661,25.777515 13.3761002,25.6918397 13.2770653,25.6918397 L11.5666313,25.6918397 C11.4676974,25.6918397 11.3829518,25.6061442 11.3829518,25.5061998 L11.3829518,20.4250417 C11.3829518,20.3250973 11.4676974,20.2395028 11.5666313,20.2395028 L13.2770653,20.2395028 C13.3761002,20.2395028 13.4608661,20.1538275 13.4608661,20.0539639 L13.4608661,20.0539639 Z" id="icon_10" fill="#FFE034"></path>
            </g>
        </g>
    </g>
</svg>