<?xml version="1.0" encoding="UTF-8"?>
<svg width="40px" height="52px" viewBox="0 0 40 52" version="1.1" xmlns="http://www.w3.org/2000/svg" xmlns:xlink="http://www.w3.org/1999/xlink">
    <title>墒情站</title>
    <defs>
        <filter x="0.0%" y="-0.0%" width="100.0%" height="100.0%" filterUnits="objectBoundingBox" id="filter-1">
            <feOffset dx="0" dy="0" in="SourceAlpha" result="shadowOffsetOuter1"></feOffset>
            <feColorMatrix values="0 0 0 0 0.541176471   0 0 0 0 0.945098039   0 0 0 0 1  0 0 0 0.496063019 0" type="matrix" in="shadowOffsetOuter1" result="shadowMatrixOuter1"></feColorMatrix>
            <feMerge>
                <feMergeNode in="shadowMatrixOuter1"></feMergeNode>
                <feMergeNode in="SourceGraphic"></feMergeNode>
            </feMerge>
        </filter>
        <path d="M19.728882,0.000669211278 C28.759361,-0.0518335735 36.1360022,7.20667642 36.2278821,16.2437183 C36.2541335,19.7810934 35.1253236,23.2331515 33.0120865,26.0748647 C31.1285491,28.5031185 26.6986267,33.0380465 26.035779,33.8058998 C25.4844998,34.5803158 20.6083036,40.3228079 19.8338875,41.313798 C19.7223191,41.4188036 19.7223191,41.4188036 19.6107507,41.313798 C18.8363346,40.4278135 15.1808282,35.7878799 13.074154,33.4711945 C10.9674798,31.0429407 7.64667862,27.9452764 6.09784647,25.7401595 C4.1224292,23.0100146 3.0723735,19.7154649 3.10518774,16.3487238 C3.13143913,11.977867 4.90340812,7.79733275 8.02076097,4.72591984 C11.1446767,1.66106978 15.3514623,-0.0387078773 19.728882,0.000669211278 Z M29.8256783,35.1836693 L40,40.804406 L19.9969683,51.8579152 L0,40.804406 L10.0894346,35.2261129 L14.2428377,38.7125461 L10.0894346,40.7983427 L19.9969683,46.2978121 L29.819615,40.804406 L25.9269365,38.7186095 L29.8256783,35.1836693 Z" id="path-2"></path>
        <filter x="-6.2%" y="-4.8%" width="112.5%" height="109.6%" filterUnits="objectBoundingBox" id="filter-3">
            <feMorphology radius="1" operator="erode" in="SourceAlpha" result="shadowSpreadInner1"></feMorphology>
            <feGaussianBlur stdDeviation="2" in="shadowSpreadInner1" result="shadowBlurInner1"></feGaussianBlur>
            <feOffset dx="0" dy="0" in="shadowBlurInner1" result="shadowOffsetInner1"></feOffset>
            <feComposite in="shadowOffsetInner1" in2="SourceAlpha" operator="arithmetic" k2="-1" k3="1" result="shadowInnerInner1"></feComposite>
            <feColorMatrix values="0 0 0 0 0.876854496   0 0 0 0 0.746681436   0 0 0 0 0  0 0 0 1 0" type="matrix" in="shadowInnerInner1"></feColorMatrix>
        </filter>
    </defs>
    <g id="页面-1" stroke="none" stroke-width="1" fill="none" fill-rule="evenodd">
        <g id="天气icon" transform="translate(-1469.000000, -86.000000)" fill-rule="nonzero">
            <g id="墒情站" filter="url(#filter-1)" transform="translate(1469.000000, 86.000000)">
                <g id="形状">
                    <use fill="#001642" xlink:href="#path-2"></use>
                    <use fill="black" fill-opacity="1" filter="url(#filter-3)" xlink:href="#path-2"></use>
                </g>
                <path d="M18.5722727,21.4427273 L18.9609091,22.0195455 C19.19,22.3959091 20.0081818,23.6518182 20.0081818,24.2736364 C20.0081818,25.0644077 19.367135,25.7054545 18.5763636,25.7054545 C17.7855923,25.7054545 17.1445455,25.0644077 17.1445455,24.2736364 C17.1445455,23.6559091 17.9504545,22.3918182 18.1918182,22.0195455 L18.1918182,22.0195455 L18.5722727,21.4427273 Z M26.9545455,23.5454545 C27.4064148,23.5454545 27.7727273,23.911767 27.7727273,24.3636364 C27.7727273,24.8155057 27.4064148,25.1818182 26.9545455,25.1818182 C26.5026761,25.1818182 26.1363636,24.8155057 26.1363636,24.3636364 C26.1363636,23.911767 26.5026761,23.5454545 26.9545455,23.5454545 Z M18.5640909,23.1363636 C18.3359587,23.4862632 18.1647425,23.8701188 18.0568182,24.2736364 C18.0590438,24.5573871 18.288522,24.7868653 18.5722727,24.7890909 L18.5722727,24.7890909 L18.5640909,24.7727273 C18.8431686,24.770668 19.070763,24.5484926 19.0795455,24.2695455 C18.9625398,23.8692092 18.7889699,23.4876311 18.5640909,23.1363636 Z M13.6590909,23.5454545 C13.9979929,23.5454545 14.2727273,23.8201889 14.2727273,24.1590909 C14.2727273,24.4979929 13.9979929,24.7727273 13.6590909,24.7727273 C13.3201889,24.7727273 13.0454545,24.4979929 13.0454545,24.1590909 C13.0454545,23.8201889 13.3201889,23.5454545 13.6590909,23.5454545 Z M22.0454545,23.9545455 C22.2713892,23.9545455 22.4545455,24.1377017 22.4545455,24.3636364 C22.4545455,24.589571 22.2713892,24.7727273 22.0454545,24.7727273 C21.8195199,24.7727273 21.6363636,24.589571 21.6363636,24.3636364 C21.6363636,24.1377017 21.8195199,23.9545455 22.0454545,23.9545455 Z M24.0909091,18.935 L24.4795455,19.5118182 C24.7577273,19.9454546 25.7068182,21.4263636 25.7068182,22.1463636 C25.7068182,23.0365462 24.9851826,23.7581818 24.095,23.7581818 C23.2048174,23.7581818 22.4831818,23.0365462 22.4831818,22.1463636 C22.4831818,21.4222727 23.4240909,19.9495454 23.7104545,19.5118182 L23.7104545,19.5118182 L24.0909091,18.935 Z M24.0909091,20.6245454 C23.7780308,21.0892311 23.5431224,21.6018842 23.3954546,22.1422727 C23.3954546,22.5263617 23.7068202,22.8377273 24.0909091,22.8377273 C24.474998,22.8377273 24.7863636,22.5263617 24.7863636,22.1422727 C24.6398861,21.6014528 24.4048913,21.0886112 24.0909091,20.6245454 Z M15.5,20.2727273 C15.9518693,20.2727273 16.3181818,20.6390398 16.3181818,21.0909091 C16.3181818,21.5427784 15.9518693,21.9090909 15.5,21.9090909 C15.0481307,21.9090909 14.6818182,21.5427784 14.6818182,21.0909091 C14.6818182,20.6390398 15.0481307,20.2727273 15.5,20.2727273 Z M27.7727273,20.2727273 C27.9986619,20.2727273 28.1818182,20.4558835 28.1818182,20.6818182 C28.1818182,20.9077529 27.9986619,21.0909091 27.7727273,21.0909091 C27.5467926,21.0909091 27.3636364,20.9077529 27.3636364,20.6818182 C27.3636364,20.4558835 27.5467926,20.2727273 27.7727273,20.2727273 Z M19.8976975,19.5366713 C20.0875724,19.4270328 20.3215185,19.4270328 20.5113934,19.5366713 C20.7012682,19.6463098 20.8182186,19.8489261 20.8181818,20.0681818 C20.8182186,20.2874375 20.7012682,20.4900539 20.5113934,20.5996923 C20.3215185,20.7093308 20.0875724,20.7093308 19.8976975,20.5996923 C19.7078227,20.4900539 19.5908723,20.2874375 19.5909091,20.0681818 C19.5908723,19.8489261 19.7078227,19.6463098 19.8976975,19.5366713 Z M12.6363636,18.6363636 C12.8622983,18.6363636 13.0454545,18.8195199 13.0454545,19.0454545 C13.0454545,19.2713892 12.8622983,19.4545454 12.6363636,19.4545454 C12.410429,19.4545454 12.2272727,19.2713892 12.2272727,19.0454546 C12.2272727,18.9369569 12.2703732,18.832903 12.3470927,18.7561836 C12.4238121,18.6794642 12.527866,18.6363636 12.6363636,18.6363636 Z M23.0436364,8 L24.0909091,11.1418182 L24.0909091,14.9545455 L29,14.9545455 L29,16.4722727 L27.3636364,17.8181818 L25.7272727,17.8181818 L26.9545455,16.5909091 L25.3181818,16.5909091 L24.0909091,17.8181818 L22.4545455,17.8181818 L23.6818182,16.5909091 L22.0454546,16.5909091 L20.8181818,17.8181818 L19.1818182,17.8181818 L20.4090909,16.5909091 L18.7727273,16.5909091 L17.5454546,17.8181818 L15.9090909,17.8181818 L17.1363636,16.5909091 L15.5,16.5909091 L13.8636364,17.8181818 L12.2272727,17.8181818 L13.8636364,16.5909091 L12.2272727,16.5909091 L11,17.4090909 L11,14.9545455 L15.9090909,14.9545455 L15.9090909,11.1418182 L16.9563636,8 L23.0436364,8 Z M22.4545455,12.0909091 L17.5454546,12.0909091 L17.5454546,14.9545455 L19.1818182,14.9545455 L19.1818182,13.3181818 L20.8181818,13.3181818 L20.8181818,14.9545455 L22.4545455,14.9545455 L22.4545455,12.0909091 Z M21.8654545,9.63636363 L18.1345455,9.63636363 L17.8604545,10.4545455 L22.1395455,10.4545455 L21.8654545,9.63636363 Z" fill="#FFE034"></path>
            </g>
        </g>
    </g>
</svg>