<?xml version="1.0" encoding="UTF-8"?>
<svg width="40px" height="52px" viewBox="0 0 40 52" version="1.1" xmlns="http://www.w3.org/2000/svg" xmlns:xlink="http://www.w3.org/1999/xlink">
    <title>村庄远传水表</title>
    <defs>
        <filter x="0.0%" y="-0.0%" width="100.0%" height="100.0%" filterUnits="objectBoundingBox" id="filter-1">
            <feOffset dx="0" dy="0" in="SourceAlpha" result="shadowOffsetOuter1"></feOffset>
            <feColorMatrix values="0 0 0 0 0.541176471   0 0 0 0 0.945098039   0 0 0 0 1  0 0 0 0.496063019 0" type="matrix" in="shadowOffsetOuter1" result="shadowMatrixOuter1"></feColorMatrix>
            <feMerge>
                <feMergeNode in="shadowMatrixOuter1"></feMergeNode>
                <feMergeNode in="SourceGraphic"></feMergeNode>
            </feMerge>
        </filter>
        <path d="M19.728882,0.000669211278 C28.759361,-0.0518335735 36.1360022,7.20667642 36.2278821,16.2437183 C36.2541335,19.7810934 35.1253236,23.2331515 33.0120865,26.0748647 C31.1285491,28.5031185 26.6986267,33.0380465 26.035779,33.8058998 C25.4844998,34.5803158 20.6083036,40.3228079 19.8338875,41.313798 C19.7223191,41.4188036 19.7223191,41.4188036 19.6107507,41.313798 C18.8363346,40.4278135 15.1808282,35.7878799 13.074154,33.4711945 C10.9674798,31.0429407 7.64667862,27.9452764 6.09784647,25.7401595 C4.1224292,23.0100146 3.0723735,19.7154649 3.10518774,16.3487238 C3.13143913,11.977867 4.90340812,7.79733275 8.02076097,4.72591984 C11.1446767,1.66106978 15.3514623,-0.0387078773 19.728882,0.000669211278 Z M29.8256783,35.1836693 L40,40.804406 L19.9969683,51.8579152 L0,40.804406 L10.0894346,35.2261129 L14.2428377,38.7125461 L10.0894346,40.7983427 L19.9969683,46.2978121 L29.819615,40.804406 L25.9269365,38.7186095 L29.8256783,35.1836693 Z" id="path-2"></path>
        <filter x="-6.2%" y="-4.8%" width="112.5%" height="109.6%" filterUnits="objectBoundingBox" id="filter-3">
            <feMorphology radius="1" operator="erode" in="SourceAlpha" result="shadowSpreadInner1"></feMorphology>
            <feGaussianBlur stdDeviation="2" in="shadowSpreadInner1" result="shadowBlurInner1"></feGaussianBlur>
            <feOffset dx="0" dy="0" in="shadowBlurInner1" result="shadowOffsetInner1"></feOffset>
            <feComposite in="shadowOffsetInner1" in2="SourceAlpha" operator="arithmetic" k2="-1" k3="1" result="shadowInnerInner1"></feComposite>
            <feColorMatrix values="0 0 0 0 0.876854496   0 0 0 0 0.746681436   0 0 0 0 0  0 0 0 1 0" type="matrix" in="shadowInnerInner1"></feColorMatrix>
        </filter>
    </defs>
    <g id="页面-1" stroke="none" stroke-width="1" fill="none" fill-rule="evenodd">
        <g id="天气icon" transform="translate(-1589.000000, -86.000000)" fill-rule="nonzero">
            <g id="村庄远传水表" filter="url(#filter-1)" transform="translate(1589.000000, 86.000000)">
                <g id="形状">
                    <use fill="#001642" xlink:href="#path-2"></use>
                    <use fill="black" fill-opacity="1" filter="url(#filter-3)" xlink:href="#path-2"></use>
                </g>
                <path d="M28.28,8 C28.6776425,8 29,8.3223575 29,8.72 L29,8.72 L29,25.28 C29,25.6776425 28.6776425,26 28.28,26 L28.28,26 L11.72,26 C11.3223575,26 11,25.6776425 11,25.28 L11,25.28 L11,8.72 C11,8.3223575 11.3223575,8 11.72,8 L11.72,8 Z M27.56,9.44 L26.524,9.44 L26.525,13.4 C26.525,13.7645056 26.2541302,14.0657509 25.9026992,14.1134272 L25.805,14.12 L14.285,14.12 C13.8873575,14.12 13.565,13.7976425 13.565,13.4 L13.565,13.4 L13.564,9.44 L12.44,9.44 L12.44,24.56 L27.56,24.56 L27.56,9.44 Z M20.0225,15.0875 C20.0225,15.0875 22.6325,19.67867 22.6325,21.1191875 C22.6325,22.5597275 21.4639625,23.7275 20.0225,23.7275 C18.5810375,23.7275 17.4125,22.5597275 17.4125,21.1191875 C17.4125,19.67867 20.0225,15.0875 20.0225,15.0875 Z M25.085,9.4625 L15.005,9.4625 L15.005,12.68 L25.085,12.68 L25.085,9.4625 Z M23.5325,10.4075 C23.6319113,10.4075 23.7125,10.4880887 23.7125,10.5875 L23.7125,12.0275 C23.7125,12.1269113 23.6319113,12.2075 23.5325,12.2075 L22.4525,12.2075 C22.3530887,12.2075 22.2725,12.1269113 22.2725,12.0275 L22.2725,10.5875 C22.2725,10.4880887 22.3530887,10.4075 22.4525,10.4075 L23.5325,10.4075 Z M17.7275,10.385 C17.8269113,10.385 17.9075,10.4655887 17.9075,10.565 L17.9075,12.005 C17.9075,12.1044113 17.8269113,12.185 17.7275,12.185 L16.6475,12.185 C16.5480887,12.185 16.4675,12.1044113 16.4675,12.005 L16.4675,10.565 C16.4675,10.4655887 16.5480887,10.385 16.6475,10.385 L17.7275,10.385 Z M20.6075,10.385 C20.7069113,10.385 20.7875,10.4655887 20.7875,10.565 L20.7875,12.005 C20.7875,12.1044113 20.7069113,12.185 20.6075,12.185 L19.5275,12.185 C19.4280887,12.185 19.3475,12.1044113 19.3475,12.005 L19.3475,10.565 C19.3475,10.4655887 19.4280887,10.385 19.5275,10.385 L20.6075,10.385 Z" fill="#FFE034"></path>
            </g>
        </g>
    </g>
</svg>