<?xml version="1.0" encoding="UTF-8"?>
<svg width="40px" height="52px" viewBox="0 0 40 52" version="1.1" xmlns="http://www.w3.org/2000/svg" xmlns:xlink="http://www.w3.org/1999/xlink">
    <title>水质站</title>
    <defs>
        <filter x="0.0%" y="-0.0%" width="100.0%" height="100.0%" filterUnits="objectBoundingBox" id="filter-1">
            <feOffset dx="0" dy="0" in="SourceAlpha" result="shadowOffsetOuter1"></feOffset>
            <feColorMatrix values="0 0 0 0 0.541176471   0 0 0 0 0.945098039   0 0 0 0 1  0 0 0 0.496063019 0" type="matrix" in="shadowOffsetOuter1" result="shadowMatrixOuter1"></feColorMatrix>
            <feMerge>
                <feMergeNode in="shadowMatrixOuter1"></feMergeNode>
                <feMergeNode in="SourceGraphic"></feMergeNode>
            </feMerge>
        </filter>
        <path d="M19.728882,0.000669211278 C28.759361,-0.0518335735 36.1360022,7.20667642 36.2278821,16.2437183 C36.2541335,19.7810934 35.1253236,23.2331515 33.0120865,26.0748647 C31.1285491,28.5031185 26.6986267,33.0380465 26.035779,33.8058998 C25.4844998,34.5803158 20.6083036,40.3228079 19.8338875,41.313798 C19.7223191,41.4188036 19.7223191,41.4188036 19.6107507,41.313798 C18.8363346,40.4278135 15.1808282,35.7878799 13.074154,33.4711945 C10.9674798,31.0429407 7.64667862,27.9452764 6.09784647,25.7401595 C4.1224292,23.0100146 3.0723735,19.7154649 3.10518774,16.3487238 C3.13143913,11.977867 4.90340812,7.79733275 8.02076097,4.72591984 C11.1446767,1.66106978 15.3514623,-0.0387078773 19.728882,0.000669211278 Z M29.8256783,35.1836693 L40,40.804406 L19.9969683,51.8579152 L0,40.804406 L10.0894346,35.2261129 L14.2428377,38.7125461 L10.0894346,40.7983427 L19.9969683,46.2978121 L29.819615,40.804406 L25.9269365,38.7186095 L29.8256783,35.1836693 Z" id="path-2"></path>
        <filter x="-6.2%" y="-4.8%" width="112.5%" height="109.6%" filterUnits="objectBoundingBox" id="filter-3">
            <feMorphology radius="1" operator="erode" in="SourceAlpha" result="shadowSpreadInner1"></feMorphology>
            <feGaussianBlur stdDeviation="2" in="shadowSpreadInner1" result="shadowBlurInner1"></feGaussianBlur>
            <feOffset dx="0" dy="0" in="shadowBlurInner1" result="shadowOffsetInner1"></feOffset>
            <feComposite in="shadowOffsetInner1" in2="SourceAlpha" operator="arithmetic" k2="-1" k3="1" result="shadowInnerInner1"></feComposite>
            <feColorMatrix values="0 0 0 0 0.876854496   0 0 0 0 0.746681436   0 0 0 0 0  0 0 0 1 0" type="matrix" in="shadowInnerInner1"></feColorMatrix>
        </filter>
    </defs>
    <g id="页面-1" stroke="none" stroke-width="1" fill="none" fill-rule="evenodd">
        <g id="天气icon" transform="translate(-1409.000000, -86.000000)" fill-rule="nonzero">
            <g id="水质站" filter="url(#filter-1)" transform="translate(1409.000000, 86.000000)">
                <g id="形状">
                    <use fill="#001642" xlink:href="#path-2"></use>
                    <use fill="black" fill-opacity="1" filter="url(#filter-3)" xlink:href="#path-2"></use>
                </g>
                <path d="M19.6014898,6 C19.9253435,6.00670042 20.2313293,6.15634314 20.4390424,6.40872564 C21.6964879,7.8939855 23.6195086,10.3910088 25.1047685,12.2939282 C27.1885992,14.9785633 27.8519408,18.4761828 26.6212969,21.3685309 C27.5213867,22.5053689 27.4298143,24.1358046 26.4068835,25.1609689 C25.3839526,26.1861332 23.753517,26.284406 22.6144455,25.3865497 C19.7131635,26.6328279 16.342852,25.9426846 14.1652154,23.6533743 C11.1567266,20.5309784 11.4024087,15.9121553 14.1652154,12.2939282 C15.5834711,10.4289779 17.4595888,7.92302066 18.7349021,6.40872564 C18.9426151,6.15634314 19.253068,6.00893389 19.5813886,6.00893389 L19.5813886,6.00893389 Z M19.5813886,8.36078146 C18.6388628,9.53335503 17.4975578,11.0364827 16.4679265,12.3899676 L16.4679265,12.3899676 L15.668343,13.4464005 C13.3633984,16.4548893 13.3075616,20.0262134 15.5254007,22.331158 C17.0821317,23.9705275 19.4652479,24.5221955 21.5848143,23.7360128 C21.3838017,22.793487 21.6719197,21.8107587 22.3508957,21.1273158 C23.0321051,20.4438729 24.0103665,20.146821 24.9551257,20.3433666 C25.777044,18.0451224 25.0355308,15.3537869 23.5793061,13.4575679 L23.5793061,13.4575679 L23.503368,13.3525947 C22.2570898,11.7333264 20.7427948,9.77903711 19.5813886,8.36078146 L19.5813886,8.36078146 Z M16.5514018,17.8198714 C17.0914301,17.4055137 17.8115004,17.3107498 18.4403463,17.5712794 C19.0692298,17.8317184 19.5113882,18.4078931 19.6002507,19.082746 C19.6891133,19.7575988 19.4111783,20.4285932 18.87115,20.8429509 C18.3311217,21.2573086 17.6110514,21.3520725 16.9822055,21.0915429 C16.353322,20.8311039 15.9111636,20.2549292 15.8223011,19.5800763 C15.7334385,18.9052235 16.0113735,18.2342291 16.5514018,17.8198714 Z M22.4737367,17.4264503 C23.0008364,17.4264503 23.4251964,17.8530437 23.4251964,18.37791 C23.4251964,18.9027762 23.0008364,19.3293697 22.4737367,19.3293697 C21.9488704,19.3293697 21.522277,18.9050097 21.522277,18.37791 C21.522277,17.8530437 21.9488704,17.4264503 22.4737367,17.4264503 Z M19.6171241,13.618378 C20.1419904,13.618378 20.5685838,14.0449714 20.5685838,14.5698377 C20.5685838,15.094704 20.1442239,15.5212974 19.6171241,15.5212974 C19.0922579,15.5212974 18.6656644,15.0969374 18.6656644,14.5698377 C18.6656644,14.0449714 19.0922579,13.618378 19.6171241,13.618378 Z" fill="#FFE034"></path>
            </g>
        </g>
    </g>
</svg>