<?xml version="1.0" encoding="UTF-8"?>
<svg width="36px" height="36px" viewBox="0 0 36 36" version="1.1" xmlns="http://www.w3.org/2000/svg" xmlns:xlink="http://www.w3.org/1999/xlink">
    <title>水质监测</title>
    <g id="页面-1" stroke="none" stroke-width="1" fill="none" fill-rule="evenodd">
        <g id="gis切图" transform="translate(-108.000000, -404.000000)">
            <g id="水质监测" transform="translate(108.000000, 404.000000)">
                <ellipse id="椭圆形备份" fill="#4A4A4A" cx="18" cy="33" rx="3" ry="1"></ellipse>
                <path d="M14.7225375,2.9776435 C16.9667213,2.31038274 19.4141913,2.32683033 21.7364762,3.1246503 C24.0587943,3.9224817 25.9996984,5.41366492 27.360012,7.31928234 C28.7202835,9.2248408 29.5,11.5448086 29.5,14.0002917 C29.5,16.3166005 28.8145488,18.4632407 27.6590956,20.2713105 L18.645933,32.2664157 L8.35909198,20.2698644 C7.02372978,18.2163548 6.4121719,15.8525015 6.51014197,13.5184298 C6.60832819,11.1792084 7.41917674,8.86990015 8.92831654,6.93288675 C10.4374563,4.99587336 12.4783538,3.64490426 14.7225375,2.9776435 Z" id="形状" stroke="#1770C1" fill="#1A82E3" fill-rule="nonzero"></path>
                <path d="M17.973,7 L15.3733766,14.0000678 L17.9719403,21.0000128 C14.1188536,20.984892 11,17.8567035 11,14.0000678 C11,10.1340746 14.1340068,7.00006781 18,7.00006781 L17.973,7 Z M18.0271707,7.00011943 C21.8806667,7.01476249 25,10.1431355 25,14.0000678 C25,17.8660611 21.8659932,21.0000678 18,21.0000678 L18.026,21 L20.6266234,14.0000678 Z" id="形状结合备份-3" fill="#FFFFFF"></path>
            </g>
        </g>
    </g>
</svg>