<svg width="32" height="33" viewBox="0 0 32 33" fill="none" xmlns="http://www.w3.org/2000/svg">
<g clip-path="url(#clip0_345_9026)">
<rect y="0.09375" width="32" height="32" rx="16" fill="#8E8E8E"/>
<path d="M12.9561 14.4384C12.3277 17.1524 15.8216 17.8433 14.9967 19.7555C14.1717 21.6677 12.3244 21.2852 12.5306 23.1974C12.7369 25.1096 15.1812 25.1364 17.4064 23.9844C21.8568 21.6801 22.7851 16.6471 20.7711 14.4384C18.2964 11.7243 13.5843 11.7243 12.9561 14.4384Z" fill="white" stroke="white" stroke-width="1.76537"/>
<path d="M20.727 12.3293C21.1004 12.6427 21.7842 12.4426 22.2542 11.8824C22.7242 11.3223 22.8025 10.6141 22.4291 10.3008C22.0557 9.98742 21.3719 10.1875 20.9019 10.7477C20.4318 11.3078 20.3535 12.016 20.727 12.3293Z" fill="white"/>
<path d="M18.7424 11.2208C19.1842 11.4268 19.7929 11.0565 20.1019 10.3938C20.411 9.73108 20.3033 9.02682 19.8615 8.82079C19.4197 8.61477 18.811 8.985 18.502 9.64773C18.1929 10.3105 18.3006 11.0147 18.7424 11.2208Z" fill="white"/>
<path d="M16.5161 10.8962C17.0009 10.9472 17.4559 10.399 17.5323 9.67172C17.6088 8.94448 17.2777 8.31363 16.7929 8.26268C16.3081 8.21172 15.8531 8.75995 15.7766 9.48719C15.7002 10.2144 16.0313 10.8453 16.5161 10.8962Z" fill="white"/>
<path d="M13.1178 10.531C13.8049 10.2809 14.0916 9.33542 13.7582 8.41923C13.4247 7.50304 12.5973 6.96307 11.9102 7.21317C11.2231 7.46327 10.9363 8.40873 11.2698 9.32492C11.6033 10.2411 12.4306 10.7811 13.1178 10.531Z" fill="white" stroke="white" stroke-width="1.76537"/>
<path d="M22.3289 13.9315C22.6422 14.305 23.3504 14.2267 23.9105 13.7566C24.4707 13.2866 24.6708 12.6028 24.3574 12.2294C24.0441 11.856 23.3359 11.9343 22.7758 12.4043C22.2156 12.8743 22.0155 13.5581 22.3289 13.9315Z" fill="white"/>
</g>
<defs>
<clipPath id="clip0_345_9026">
<rect y="0.09375" width="32" height="32" rx="16" fill="white"/>
</clipPath>
</defs>
</svg>
