<?xml version="1.0" encoding="UTF-8"?>
<svg width="40px" height="52px" viewBox="0 0 40 52" version="1.1" xmlns="http://www.w3.org/2000/svg" xmlns:xlink="http://www.w3.org/1999/xlink">
    <title>地下水位站</title>
    <defs>
        <filter x="0.0%" y="-0.0%" width="100.0%" height="100.0%" filterUnits="objectBoundingBox" id="filter-1">
            <feOffset dx="0" dy="0" in="SourceAlpha" result="shadowOffsetOuter1"></feOffset>
            <feColorMatrix values="0 0 0 0 0.541176471   0 0 0 0 0.945098039   0 0 0 0 1  0 0 0 0.496063019 0" type="matrix" in="shadowOffsetOuter1" result="shadowMatrixOuter1"></feColorMatrix>
            <feMerge>
                <feMergeNode in="shadowMatrixOuter1"></feMergeNode>
                <feMergeNode in="SourceGraphic"></feMergeNode>
            </feMerge>
        </filter>
        <path d="M19.728882,0.000669211278 C28.759361,-0.0518335735 36.1360022,7.20667642 36.2278821,16.2437183 C36.2541335,19.7810934 35.1253236,23.2331515 33.0120865,26.0748647 C31.1285491,28.5031185 26.6986267,33.0380465 26.035779,33.8058998 C25.4844998,34.5803158 20.6083036,40.3228079 19.8338875,41.313798 C19.7223191,41.4188036 19.7223191,41.4188036 19.6107507,41.313798 C18.8363346,40.4278135 15.1808282,35.7878799 13.074154,33.4711945 C10.9674798,31.0429407 7.64667862,27.9452764 6.09784647,25.7401595 C4.1224292,23.0100146 3.0723735,19.7154649 3.10518774,16.3487238 C3.13143913,11.977867 4.90340812,7.79733275 8.02076097,4.72591984 C11.1446767,1.66106978 15.3514623,-0.0387078773 19.728882,0.000669211278 Z M29.8256783,35.1836693 L40,40.804406 L19.9969683,51.8579152 L0,40.804406 L10.0894346,35.2261129 L14.2428377,38.7125461 L10.0894346,40.7983427 L19.9969683,46.2978121 L29.819615,40.804406 L25.9269365,38.7186095 L29.8256783,35.1836693 Z" id="path-2"></path>
        <filter x="-6.2%" y="-4.8%" width="112.5%" height="109.6%" filterUnits="objectBoundingBox" id="filter-3">
            <feMorphology radius="1" operator="erode" in="SourceAlpha" result="shadowSpreadInner1"></feMorphology>
            <feGaussianBlur stdDeviation="2" in="shadowSpreadInner1" result="shadowBlurInner1"></feGaussianBlur>
            <feOffset dx="0" dy="0" in="shadowBlurInner1" result="shadowOffsetInner1"></feOffset>
            <feComposite in="shadowOffsetInner1" in2="SourceAlpha" operator="arithmetic" k2="-1" k3="1" result="shadowInnerInner1"></feComposite>
            <feColorMatrix values="0 0 0 0 0.876854496   0 0 0 0 0.746681436   0 0 0 0 0  0 0 0 1 0" type="matrix" in="shadowInnerInner1"></feColorMatrix>
        </filter>
    </defs>
    <g id="页面-1" stroke="none" stroke-width="1" fill="none" fill-rule="evenodd">
        <g id="天气icon" transform="translate(-1529.000000, -86.000000)" fill-rule="nonzero">
            <g id="地下水位站" filter="url(#filter-1)" transform="translate(1529.000000, 86.000000)">
                <g id="形状">
                    <use fill="#001642" xlink:href="#path-2"></use>
                    <use fill="black" fill-opacity="1" filter="url(#filter-3)" xlink:href="#path-2"></use>
                </g>
                <path d="M23.7244,20.7897974 L24.2482745,21.5581466 C24.6068375,22.0855136 25.4427083,23.3858865 25.4427083,24.0762367 C25.4427083,24.9947633 24.6720307,25.7409934 23.7244,25.7409934 C22.7756051,25.7409934 22.0060917,24.9924349 22.0060917,24.0762367 C22.0060917,23.3835582 22.8407983,22.0855136 23.2005255,21.5581466 L23.2005255,21.5581466 L23.7244,20.7897974 Z M12.4808893,24.1321166 C12.7382768,24.1282263 12.9502405,24.3334196 12.9547047,24.5907978 C12.9547047,24.7561093 12.8638998,24.9074509 12.7172149,24.9889424 C12.57053,25.070434 12.3900844,25.070434 12.2433995,24.9889424 C12.0967147,24.9074509 12.0059098,24.7549452 12.0059098,24.5907978 C12.0080523,24.4669806 12.059303,24.349088 12.1483831,24.2630645 C12.2374632,24.1770411 12.3570727,24.1299364 12.4808893,24.1321166 Z M18.7638907,23.5011389 C18.9984567,23.3707843 19.2837038,23.3707843 19.5182699,23.5011389 C19.7499904,23.6279173 19.8948061,23.8703165 19.8966237,24.1344449 C19.8966237,24.395218 19.751103,24.6373645 19.5182699,24.767751 C19.2854368,24.8993017 18.9967238,24.8993017 18.7638907,24.767751 C18.5298934,24.6373645 18.3855369,24.395218 18.3855369,24.1344449 C18.3873545,23.8703165 18.5321702,23.6279173 18.7638907,23.5011389 Z M27.5102663,23.7304795 C27.6340814,23.7286131 27.7535655,23.7760156 27.8424261,23.8622563 C27.9312868,23.948497 27.9822429,24.0665093 27.9840817,24.1903249 C27.9822429,24.3141405 27.9312868,24.4321528 27.8424261,24.5183935 C27.7535655,24.6046342 27.6340814,24.6520367 27.5102663,24.6501703 C27.248329,24.6501703 27.0352867,24.444113 27.0352867,24.1903249 C27.0371235,24.0663043 27.08824,23.9481131 27.1773536,23.8618388 C27.2664673,23.7755646 27.3862512,23.7283007 27.5102663,23.7304795 Z M15.1829175,16.5405932 L15.706792,17.3089424 C16.0432358,17.8025486 17.1445364,19.4812753 17.1445364,20.3136537 C17.1445364,21.3602385 16.2644273,22.2135718 15.1817533,22.2135718 C14.1014077,22.2135718 13.2201344,21.3602385 13.2201344,20.3124895 C13.2201344,19.4812753 14.321435,17.804877 14.6578788,17.3089424 L14.6578788,17.3089424 L15.1817533,16.5405932 L15.1829175,16.5405932 Z M10.9255641,19.936464 C11.0493793,19.9345976 11.1688633,19.9820001 11.257724,20.0682408 C11.3465847,20.1544815 11.3975408,20.2724939 11.3993795,20.3963094 C11.3949154,20.6536877 11.1829517,20.858881 10.9255641,20.8549907 C10.6636269,20.8549907 10.4505846,20.6500975 10.4505846,20.3963094 C10.4524213,20.2722888 10.5035378,20.1540976 10.5926515,20.0678234 C10.6817651,19.9815491 10.8015491,19.9342853 10.9255641,19.936464 Z M26.5614714,18.6814936 C26.8563785,18.5171193 27.2153591,18.5171193 27.5102663,18.6814936 C27.9054434,18.8964832 28.0829256,19.3689429 27.9270375,19.7909434 C27.7616941,20.215137 27.3192232,20.4629597 26.8711394,20.3823394 C26.418279,20.3043404 26.087656,19.9224941 26.087656,19.4777828 L26.087656,19.4777828 C26.0897693,19.1452791 26.2710657,18.8410396 26.5614714,18.6814936 Z M19.4228083,19.5383194 C19.5704421,19.4560284 19.7501542,19.4560284 19.8977879,19.5383194 C20.042858,19.6184381 20.1332609,19.7707426 20.1341135,19.936464 C20.1322747,20.0602796 20.0813186,20.178292 19.992458,20.2645327 C19.9035973,20.3507734 19.7841133,20.3981759 19.6602981,20.3963094 C19.3983609,20.3963094 19.1864827,20.1902521 19.1864827,19.936464 C19.1873353,19.7707426 19.2777383,19.6184381 19.4228083,19.5383194 Z M22.8093659,12.4927897 L23.3332404,13.2611389 C23.7290566,13.8420575 25.0212804,15.8118256 25.0212804,16.7699338 L25.0212804,16.7699338 C25.0201162,17.9503977 24.0282472,18.9131625 22.8082017,18.9131625 C21.5893204,18.9131625 20.5962872,17.9503977 20.5962872,16.7687696 C20.5962872,15.8141539 21.8885109,13.8432217 22.2843272,13.2611389 L22.2843272,13.2611389 L22.8093659,12.4927897 Z M17.177133,14.6371826 C17.3009482,14.6353161 17.4204322,14.6827186 17.5092929,14.7689593 C17.5981536,14.8552 17.6491097,14.9732124 17.6509484,15.0970279 C17.6464842,15.3544062 17.4345206,15.5595995 17.177133,15.5557092 C16.9151958,15.5557092 16.7021535,15.350816 16.7021535,15.0970279 C16.7039902,14.9730073 16.7551067,14.8548161 16.8442204,14.7685419 C16.933334,14.6822676 17.053118,14.6350038 17.177133,14.6371826 Z M26.7989611,14.3903795 C26.9462928,14.3085204 27.1254449,14.3085204 27.2727765,14.3903795 C27.4182961,14.4701939 27.5091793,14.6225569 27.5102663,14.7885241 C27.5102663,14.9526714 27.4194614,15.1040129 27.2727765,15.1855045 C27.1249275,15.2669961 26.945646,15.2669961 26.7989611,15.1855045 C26.6522763,15.1028488 26.5614714,14.9515073 26.5614714,14.7885241 C26.5625584,14.6225569 26.6534416,14.4701939 26.7989611,14.3903795 Z M11.6904209,13.2611389 C11.9380512,13.257406 12.1770193,13.3522111 12.3547406,13.5246925 C12.532462,13.6971739 12.6343742,13.9331985 12.6380516,14.1808297 C12.6359384,14.5121692 12.4546419,14.8164087 12.1642363,14.9759547 C11.8696311,15.1398968 11.5112107,15.1398968 11.2166055,14.9759547 C10.9232358,14.8118074 10.741626,14.5091243 10.741626,14.1808297 C10.7453017,13.9329936 10.8473743,13.6967902 11.0253485,13.5242753 C11.2033227,13.3517604 11.4425906,13.2570939 11.6904209,13.2611389 Z M28.9747865,8.27851043 L28.9747865,10.300666 L27.5498479,11.6813663 L25.7768238,11.6813663 L27.782681,9.73720984 L26.0096569,9.73720984 L24.0026355,11.6813663 L22.2261189,11.6813663 L24.2331403,9.73720984 L22.4601162,9.73720984 L20.4530948,11.6813663 L18.6789066,11.6813663 L20.6859279,9.73720984 L18.914068,9.73720984 L16.9070466,11.6813663 L15.1328584,11.6813663 L17.1387156,9.73720984 L15.3656915,9.73720984 L13.3586701,11.6813663 L11.5844818,11.6813663 L13.5915032,9.73720984 L11.8184791,9.73720984 L10.348138,11.1609843 L10.348138,8.27851043 L28.9747865,8.27851043 Z" id="形状结合" fill="#FFE034"></path>
            </g>
        </g>
    </g>
</svg>