<?xml version="1.0" encoding="UTF-8"?>
<svg width="40px" height="52px" viewBox="0 0 40 52" version="1.1" xmlns="http://www.w3.org/2000/svg" xmlns:xlink="http://www.w3.org/1999/xlink">
    <title>水位站</title>
    <defs>
        <filter x="0.0%" y="-0.0%" width="100.0%" height="100.0%" filterUnits="objectBoundingBox" id="filter-1">
            <feOffset dx="0" dy="0" in="SourceAlpha" result="shadowOffsetOuter1"></feOffset>
            <feColorMatrix values="0 0 0 0 0.541176471   0 0 0 0 0.945098039   0 0 0 0 1  0 0 0 0.496063019 0" type="matrix" in="shadowOffsetOuter1" result="shadowMatrixOuter1"></feColorMatrix>
            <feMerge>
                <feMergeNode in="shadowMatrixOuter1"></feMergeNode>
                <feMergeNode in="SourceGraphic"></feMergeNode>
            </feMerge>
        </filter>
        <path d="M19.728882,0.000669211278 C28.759361,-0.0518335735 36.1360022,7.20667642 36.2278821,16.2437183 C36.2541335,19.7810934 35.1253236,23.2331515 33.0120865,26.0748647 C31.1285491,28.5031185 26.6986267,33.0380465 26.035779,33.8058998 C25.4844998,34.5803158 20.6083036,40.3228079 19.8338875,41.313798 C19.7223191,41.4188036 19.7223191,41.4188036 19.6107507,41.313798 C18.8363346,40.4278135 15.1808282,35.7878799 13.074154,33.4711945 C10.9674798,31.0429407 7.64667862,27.9452764 6.09784647,25.7401595 C4.1224292,23.0100146 3.0723735,19.7154649 3.10518774,16.3487238 C3.13143913,11.977867 4.90340812,7.79733275 8.02076097,4.72591984 C11.1446767,1.66106978 15.3514623,-0.0387078773 19.728882,0.000669211278 Z M29.8256783,35.1836693 L40,40.804406 L19.9969683,51.8579152 L0,40.804406 L10.0894346,35.2261129 L14.2428377,38.7125461 L10.0894346,40.7983427 L19.9969683,46.2978121 L29.819615,40.804406 L25.9269365,38.7186095 L29.8256783,35.1836693 Z" id="path-2"></path>
        <filter x="-6.2%" y="-4.8%" width="112.5%" height="109.6%" filterUnits="objectBoundingBox" id="filter-3">
            <feMorphology radius="1" operator="erode" in="SourceAlpha" result="shadowSpreadInner1"></feMorphology>
            <feGaussianBlur stdDeviation="2" in="shadowSpreadInner1" result="shadowBlurInner1"></feGaussianBlur>
            <feOffset dx="0" dy="0" in="shadowBlurInner1" result="shadowOffsetInner1"></feOffset>
            <feComposite in="shadowOffsetInner1" in2="SourceAlpha" operator="arithmetic" k2="-1" k3="1" result="shadowInnerInner1"></feComposite>
            <feColorMatrix values="0 0 0 0 0.876854496   0 0 0 0 0.746681436   0 0 0 0 0  0 0 0 1 0" type="matrix" in="shadowInnerInner1"></feColorMatrix>
        </filter>
    </defs>
    <g id="页面-1" stroke="none" stroke-width="1" fill="none" fill-rule="evenodd">
        <g id="天气icon" transform="translate(-1349.000000, -86.000000)" fill-rule="nonzero">
            <g id="水位站" filter="url(#filter-1)" transform="translate(1349.000000, 86.000000)">
                <g id="形状">
                    <use fill="#001642" xlink:href="#path-2"></use>
                    <use fill="black" fill-opacity="1" filter="url(#filter-3)" xlink:href="#path-2"></use>
                </g>
                <path d="M19.8956285,24.3576979 L19.9661683,24.3600403 C20.0595908,24.3714023 20.1418868,24.4269042 20.1874283,24.5092621 C20.5356,25.117892 21.16098,25.5162109 21.8597419,25.5743973 C22.605982,25.5520398 23.3004758,25.1877152 23.7430244,24.5864458 C23.7973695,24.5130763 23.8832712,24.4698041 23.9745755,24.4698041 C24.0658798,24.4698041 24.1517815,24.5130763 24.2061266,24.5864458 C24.6780362,25.1524752 25.3554746,25.5078528 26.0894091,25.5743973 L26.0894091,25.5743973 L26.1357193,25.5743973 C26.8837994,25.4948742 27.5709526,25.125437 28.0498752,24.5452812 C28.1144621,24.4658964 28.2163086,24.4267246 28.3174454,24.4423696 C28.4202136,24.4563784 28.5070855,24.5254811 28.543851,24.6224649 C28.5855617,24.7185937 28.5696447,24.8300127 28.5026863,24.9106174 C27.914965,25.621399 27.065203,26.0648337 26.1460105,26.1404111 L26.1460105,26.1404111 L26.0894091,26.1404111 C25.2931063,26.1010258 24.5420097,25.7586141 23.9900123,25.1833331 C23.4419331,25.7992647 22.6532669,26.1466534 21.8288685,26.1352655 C21.0583123,26.0820773 20.3487198,25.6972454 19.8838391,25.0804215 C19.304245,25.6702917 18.5393272,26.0427576 17.7175497,26.1352655 L17.7175497,26.1352655 L17.525942,26.1261239 C16.6270983,26.0423249 15.6771555,25.403907 15.2785445,25.1061494 C14.8617525,25.4457577 13.7914718,26.1970125 12.8035203,26.1352655 C11.9492821,26.0168355 11.1715954,25.5792719 10.6269398,24.9106174 C10.53593,24.7837271 10.560297,24.6077791 10.6823661,24.5103981 C10.8044352,24.4130172 10.9813993,24.4283528 11.0848965,24.5452812 C11.5216923,25.0943048 12.1471581,25.4611469 12.8395394,25.5743973 C13.8429276,25.6464354 15.0778669,24.5452812 15.0778669,24.5452812 C15.186712,24.4494753 15.3497948,24.4494753 15.4586399,24.5452812 C15.4740766,24.5452812 16.7244527,25.5743973 17.7175497,25.5743973 L17.7175497,25.5743973 L17.8799275,25.5643955 C18.5840312,25.4793805 19.2838107,24.8742736 19.5741372,24.5942242 L19.6775853,24.491129 C19.7013933,24.4665093 19.7140349,24.4526607 19.7140349,24.4526607 C19.7759943,24.379669 19.8716923,24.3445147 19.9661683,24.3600403 Z M19.8904829,22.5515992 L19.9610228,22.5539415 C20.0544452,22.5653035 20.1367412,22.6208055 20.1822827,22.7031634 C20.5304545,23.3117932 21.1558345,23.7101122 21.8545964,23.7682985 C22.6004381,23.7538105 23.2968471,23.3922866 23.7378788,22.7906382 C23.7924007,22.7172586 23.8780201,22.6734976 23.9694299,22.6722899 C24.0611912,22.667754 24.1494443,22.7080435 24.2061266,22.7803471 C24.6746119,23.3478847 25.351178,23.703777 26.0842635,23.7682985 L26.0842635,23.7682985 L26.1305737,23.7682985 C26.8786538,23.6887755 27.565807,23.3193382 28.0447297,22.7391824 C28.1121446,22.6606272 28.2149401,22.6218365 28.3174454,22.6362708 C28.4202008,22.651523 28.5067927,22.7209028 28.5440838,22.8178598 C28.581375,22.9148169 28.5635923,23.0243407 28.4975407,23.1045186 C27.9106636,23.8136183 27.0632029,24.2568198 26.1460105,24.3343124 L26.1460105,24.3343124 L26.0842635,24.3343124 C25.2891824,24.2942433 24.5389058,23.9540444 23.9848667,23.38238 C23.4367876,23.9983116 22.6481213,24.3457003 21.8237229,24.3343124 C21.052581,24.2831438 20.3422009,23.8978847 19.8786935,23.2794684 C19.3004302,23.868285 18.5375032,24.240666 17.7175497,24.3343124 L17.7175497,24.3343124 L17.525044,24.3252348 C16.622593,24.2420121 15.6768125,23.6077564 15.273399,23.3051963 C14.8566069,23.6448046 13.7863262,24.3960593 12.7983748,24.3343124 L12.7983748,24.3343124 C11.9447986,24.2087767 11.1677815,23.7715898 10.6217942,23.1045186 C10.5307844,22.9776284 10.5551514,22.8016803 10.6772205,22.7042994 C10.7992896,22.6069184 10.9762537,22.622254 11.0797509,22.7391824 C11.5165467,23.288206 12.1420125,23.6550482 12.8343938,23.7682985 C13.837782,23.8403366 15.0727213,22.7391824 15.0727213,22.7391824 C15.1840571,22.6448226 15.3473041,22.6448226 15.4586399,22.7391824 C15.468931,22.7391824 16.7193071,23.7682985 17.7124041,23.7682985 L17.7124041,23.7682985 L17.874017,23.7575318 C18.7909432,23.6425335 19.7088893,22.646562 19.7088893,22.646562 C19.7708488,22.5735703 19.8665468,22.5384159 19.9610228,22.5539415 Z M25.0808753,12.540642 L25.0808753,20.0171704 L21.159943,20.0171704 L21.159943,23.2949051 C20.7548157,23.1009637 20.416356,22.7911567 20.1874283,22.4047197 C20.1428117,22.3211406 20.0605702,22.2642608 19.9666237,22.2520069 C19.8726771,22.239753 19.7785973,22.2736344 19.7140349,22.3429727 C19.3733444,22.70221 18.9772519,23.0044911 18.5408426,23.2383037 L18.5408426,23.2383037 L18.5408426,20.0171704 L14.6199102,20.0171704 L14.6199102,12.540642 L25.0808753,12.540642 Z M23.8768095,14.5834374 L15.8239761,14.5834374 L15.8239761,17.3929243 L23.8768095,17.3929243 L23.8768095,14.5834374 Z M20.2131562,6.15497662 L26.1408649,11.4446333 L26.1408649,11.6247286 L13.64225,11.6247286 L13.64225,11.4446333 L19.5442307,6.15497662 L20.2131562,6.15497662 Z M19.8992758,8.46534224 C19.3309107,8.46534224 18.8701597,8.92609321 18.8701597,9.49445833 C18.8701597,10.0628235 19.3309107,10.5235744 19.8992758,10.5235744 C20.4676409,10.5235744 20.9283919,10.0628235 20.9283919,9.49445833 C20.9283919,8.92609321 20.4676409,8.46534224 19.8992758,8.46534224 Z" id="形状结合" fill="#FFE034"></path>
            </g>
        </g>
    </g>
</svg>