<?xml version="1.0" encoding="UTF-8"?>
<svg width="64px" height="64px" viewBox="0 0 64 64" version="1.1" xmlns="http://www.w3.org/2000/svg" xmlns:xlink="http://www.w3.org/1999/xlink">
    <title>形状</title>
    <defs>
        <linearGradient x1="50%" y1="0%" x2="50%" y2="100%" id="linearGradient-1">
            <stop stop-color="#A0FFFD" offset="0%"></stop>
            <stop stop-color="#67FFFA" offset="100%"></stop>
        </linearGradient>
    </defs>
    <g id="大屏" stroke="none" stroke-width="1" fill="none" fill-rule="evenodd">
        <g id="大屏标题居中" transform="translate(-4618.000000, -62.000000)" fill-rule="nonzero">
            <g id="主页" transform="translate(4618.000000, 61.000000)">
                <rect id="矩形" fill="#000000" opacity="0" x="0" y="0" width="64" height="64"></rect>
                <path d="M62.88125,25.79375 L51.1625,16.98125 C51.1625,16.96875 51.16875,16.9625 51.16875,16.95625 L51.16875,7.5875 C51.16875,7.44375 51.05,7.325 50.90625,7.325 L45.13125,7.325 C44.9875,7.325 44.86875,7.44375 44.86875,7.5875 L44.86875,12.25 L33.45625,3.675 C33,3.33125 32.45625,3.15 31.8875,3.15 C31.3125,3.15 30.76875,3.33125 30.3125,3.68125 L1.04375,25.78125 C0.4875,26.2 0.13125,26.8125 0.03125,27.50625 C-0.1,28.43125 0.26875,29.35 1.04375,29.9625 C1.3125,30.16875 1.61875,30.31875 1.95,30.4 C2.7625,30.6 3.5625,30.4375 4.2,29.95625 L31.5625,9.2875 C31.75625,9.14375 32.025,9.14375 32.2125,9.2875 L59.825,30.0375 C60.28125,30.38125 60.825,30.5625 61.39375,30.5625 C62.25,30.5625 63.0375,30.15625 63.53125,29.45625 C64.3625,28.28125 64.025,26.65 62.88125,25.79375 Z M56.66875,31.2125 L44.59375,22.4625 L32.3,13.55625 C32.0875,13.4 31.79375,13.4 31.58125,13.55625 L19.29375,22.4625 L7.21875,31.2125 C6.86875,31.46875 6.65625,31.875 6.65625,32.3125 L6.65625,56.81875 C6.65625,59.0375 8.46875,60.85 10.6875,60.85 L26.10625,60.85 L26.10625,44.7625 C26.10625,42.8875 27.64375,41.35 29.51875,41.35 L34.3625,41.35 C36.2375,41.35 37.775,42.8875 37.775,44.7625 L37.775,60.85 L53.19375,60.85 C55.4125,60.85 57.2251342,59.0375 57.2251342,56.81875 L57.2251342,32.3125 C57.23125,31.88125 57.01875,31.46875 56.66875,31.2125 Z" id="形状" fill="url(#linearGradient-1)"></path>
            </g>
        </g>
    </g>
</svg>