<?xml version="1.0" encoding="UTF-8"?>
<svg width="5009px" height="190px" viewBox="0 0 5009 190" version="1.1" xmlns="http://www.w3.org/2000/svg" xmlns:xlink="http://www.w3.org/1999/xlink">
    <title>编组 23</title>
    <defs>
        <linearGradient x1="100%" y1="50%" x2="0%" y2="50%" id="linearGradient-1">
            <stop stop-color="#2BA5AD" stop-opacity="0" offset="0%"></stop>
            <stop stop-color="#039AA1" stop-opacity="0.455766936" offset="17.2931368%"></stop>
            <stop stop-color="#00CAE0" offset="55.2322129%"></stop>
            <stop stop-color="#039AA1" stop-opacity="0.455080043" offset="78.9004548%"></stop>
            <stop stop-color="#039AA1" stop-opacity="0" offset="100%"></stop>
        </linearGradient>
        <linearGradient x1="100%" y1="50%" x2="0%" y2="50%" id="linearGradient-2">
            <stop stop-color="#00F5FF" stop-opacity="0" offset="0%"></stop>
            <stop stop-color="#00E8FF" offset="100%"></stop>
        </linearGradient>
    </defs>
    <g id="大屏" stroke="none" stroke-width="1" fill="none" fill-rule="evenodd">
        <g id="大屏标题居中" transform="translate(-269.000000, -1.000000)">
            <g id="编组-23" transform="translate(269.000000, 1.000000)">
                <rect id="矩形" fill="url(#linearGradient-1)" x="1709" y="5" width="1591" height="180"></rect>
                <polyline id="路径-2" stroke="#00E8FF" stroke-width="3" points="3300 56 3300 5 1709 5 1709 57"></polyline>
                <polyline id="路径-2备份" stroke="#00E8FF" stroke-width="3" transform="translate(2504.500000, 159.500000) scale(1, -1) translate(-2504.500000, -159.500000) " points="3300 185 3300 134 1709 134 1709 185"></polyline>
                <rect id="矩形" fill="#00E8FF" x="1735" y="56" width="22" height="78"></rect>
                <rect id="矩形备份-13" fill="#00E8FF" x="3262" y="56" width="22" height="78"></rect>
                <g id="编组-26" opacity="0.5" transform="translate(1836.000000, 0.000000)" fill="#00E8FF">
                    <rect id="矩形" x="0" y="0" width="61" height="5"></rect>
                    <rect id="矩形备份-10" x="0" y="185" width="61" height="5"></rect>
                </g>
                <g id="编组-25" transform="translate(3372.000000, 0.000000)">
                    <g id="编组-26备份" fill="#00E8FF">
                        <rect id="矩形" x="0" y="0" width="61" height="5"></rect>
                        <rect id="矩形备份-11" x="299" y="0" width="61" height="5"></rect>
                        <rect id="矩形备份-10" x="0" y="185" width="61" height="5"></rect>
                        <rect id="矩形备份-12" x="299" y="185" width="61" height="5"></rect>
                    </g>
                    <g id="编组-8" transform="translate(0.000000, 13.000000)">
                        <rect id="矩形" fill="url(#linearGradient-2)" x="0" y="160" width="1637" height="4"></rect>
                        <rect id="矩形备份" fill="url(#linearGradient-2)" x="0" y="0" width="1637" height="4"></rect>
                        <g id="编组-2" transform="translate(6.000000, 38.000000)"></g>
                    </g>
                </g>
                <g id="编组-25备份" transform="translate(818.500000, 95.000000) scale(-1, 1) translate(-818.500000, -95.000000) ">
                    <g id="编组-26备份" fill="#00E8FF">
                        <rect id="矩形" x="0" y="0" width="61" height="5"></rect>
                        <rect id="矩形备份-11" x="299" y="0" width="61" height="5"></rect>
                        <rect id="矩形备份-10" x="0" y="185" width="61" height="5"></rect>
                        <rect id="矩形备份-12" x="299" y="185" width="61" height="5"></rect>
                    </g>
                    <g id="编组-8" transform="translate(0.000000, 13.000000)">
                        <rect id="矩形" fill="url(#linearGradient-2)" x="0" y="160" width="1637" height="4"></rect>
                        <rect id="矩形备份" fill="url(#linearGradient-2)" x="0" y="0" width="1637" height="4"></rect>
                        <g id="编组-2" transform="translate(6.000000, 38.000000)"></g>
                    </g>
                </g>
            </g>
        </g>
    </g>
</svg>