<?xml version="1.0" encoding="UTF-8"?>
<svg width="2560px" height="90px" viewBox="0 0 2560 90" version="1.1" xmlns="http://www.w3.org/2000/svg" xmlns:xlink="http://www.w3.org/1999/xlink">
    <title>编组 69</title>
    <defs>
        <linearGradient x1="0%" y1="50%" x2="100%" y2="50%" id="linearGradient-1">
            <stop stop-color="#00FCFF" stop-opacity="0.67" offset="0%"></stop>
            <stop stop-color="#00FCFF" stop-opacity="0" offset="100%"></stop>
        </linearGradient>
        <linearGradient x1="100%" y1="50%" x2="0%" y2="50%" id="linearGradient-2">
            <stop stop-color="#00F5FF" stop-opacity="0" offset="0%"></stop>
            <stop stop-color="#00EEFF" offset="100%"></stop>
            <stop stop-color="#00E8FF" offset="100%"></stop>
        </linearGradient>
        <linearGradient x1="100%" y1="50%" x2="0%" y2="50%" id="linearGradient-3">
            <stop stop-color="#00F5FF" stop-opacity="0" offset="0%"></stop>
            <stop stop-color="#00E8FF" offset="100%"></stop>
        </linearGradient>
    </defs>
    <g id="页面-1" stroke="none" stroke-width="1" fill="none" fill-rule="evenodd">
        <g id="编组-69" transform="translate(0.237244, -2.000000)">
            <g id="编组-71" transform="translate(0.762756, 2.000000)">
                <polygon id="矩形-6-拷贝" fill="#00EAFF" opacity="0.6" points="61.99993 88.000016 97.000035 88.000016 97.000035 88.000016 97.000035 90.00002 97.000035 90.00002 61.99993 90.00002 61.99993 90.00002"></polygon>
                <polygon id="矩形-5" fill="url(#linearGradient-1)" opacity="0.8" points="731 3 731 87 1 87 1 3"></polygon>
                <polygon id="矩形-6-拷贝-3" fill="#00EAFF" opacity="0.6" points="643.69993 87.3478486 678.70007 87.3478486 678.70007 87.3478486 678.70007 90.1594484 678.70007 90.1594484 643.69993 90.1594484 643.69993 90.1594484"></polygon>
                <polygon id="矩形-6-拷贝-2" fill="#00EAFF" opacity="0.6" points="61.99993 -1.4e-05 97.000035 -1.4e-05 97.000035 -1.4e-05 97.000035 1.999992 97.000035 1.999992 61.99993 1.999992 61.99993 1.999992"></polygon>
                <polygon id="矩形-6-拷贝-3" fill="#00EAFF" opacity="0.6" points="643.69993 0.24635713 678.70007 0.24635713 678.70007 0.24635713 678.70007 3.05795977 678.70007 3.05795977 643.69993 3.05795977 643.69993 3.05795977"></polygon>
                <path d="M0,29 L0,3 L732,3 L732,26.3127092" id="矩形-5-拷贝" stroke="#00F6FF" stroke-width="2" fill-opacity="0" fill="#000000"></path>
                <path d="M0,87 L0,61 L732,61 L732,84.3127092" id="矩形-5-拷贝备份" stroke="#00F6FF" stroke-width="2" fill-opacity="0" fill="#000000" transform="translate(366.000000, 74.000000) scale(-1, -1) translate(-366.000000, -74.000000) "></path>
                <line x1="96.999888" y1="27.0576407" x2="96.999888" y2="62.2017739" id="形状-3" stroke="#00F6FF" stroke-width="10" fill-opacity="0" fill="#000000"></line>
            </g>
            <g id="编组-6" transform="translate(0.000000, 4.246377)"></g>
            <line x1="770.487531" y1="82.941551" x2="2558.55845" y2="82.941551" id="形状-4-拷贝" fill="url(#linearGradient-2)"></line>
            <g id="编组-70" transform="translate(769.762756, 2.000000)">
                <rect id="矩形" fill="url(#linearGradient-3)" x="0" y="79" width="1791" height="2"></rect>
                <rect id="矩形备份-54" fill="url(#linearGradient-3)" x="0" y="7" width="1791" height="2"></rect>
                <rect id="矩形" fill="#A6CACC" x="1" y="88" width="25.2" height="2"></rect>
                <rect id="矩形备份-53" fill="#A6CACC" x="1" y="0" width="25.2" height="2"></rect>
            </g>
            <g id="编组-68" transform="translate(770.762756, 0.000000)"></g>
        </g>
    </g>
</svg>