<?xml version="1.0" encoding="UTF-8"?>
<svg width="60px" height="60px" viewBox="0 0 60 60" version="1.1" xmlns="http://www.w3.org/2000/svg" xmlns:xlink="http://www.w3.org/1999/xlink">
    <title>编组 24</title>
    <g id="页面-1" stroke="none" stroke-width="1" fill="none" fill-rule="evenodd">
        <g id="编组-24">
            <polygon id="矩形备份-9" fill="#00040D" opacity="0.300000012" transform="translate(30.000000, 30.000000) rotate(-90.000000) translate(-30.000000, -30.000000) " points="6.99440506e-14 2.93915232e-13 60 8.07524111e-14 60 60 6.99440506e-14 60"></polygon>
            <g id="full-screen" transform="translate(7.000000, 7.000000)" fill-rule="nonzero">
                <rect id="矩形" fill="#000000" opacity="0" x="0" y="0" width="45" height="45"></rect>
                <path d="M34.5884498,9 L24.825228,9 C24.0449544,9 23.4136778,9.64115044 23.4136778,10.4336283 C23.4136778,11.2261062 24.0449544,11.8672566 24.825228,11.8672566 L31.5418541,11.8672566 L24.2684498,19.2504425 C23.7155927,19.8119469 23.7155927,20.7159292 24.2684498,21.2774336 C24.5429179,21.5561947 24.9036474,21.6995575 25.2682979,21.6995575 C25.6290274,21.6995575 25.9897568,21.560177 26.2642249,21.2814159 L33.1768997,14.2606195 L33.1768997,20.9867257 C33.1768997,21.7792035 33.8081763,22.420354 34.5884498,22.420354 C35.3687234,22.420354 36,21.7792035 36,20.9867257 L36,10.4336283 C36,9.64115044 35.3687234,9 34.5884498,9 Z M21.374772,33.1327434 L14.6581459,33.1327434 L21.9315502,25.7495575 C22.4844073,25.1880531 22.4844073,24.2840708 21.9315502,23.7225664 C21.378693,23.1610619 20.4886322,23.1610619 19.9357751,23.7225664 L13.0231003,30.7393805 L13.0231003,24.0132743 C13.0231003,23.2207965 12.3918237,22.579646 11.6115502,22.579646 C10.8312766,22.579646 10.2,23.2207965 10.2,24.0132743 L10.2,34.5663717 C10.2,35.3588496 10.8312766,36 11.6115502,36 L21.374772,36 C22.1550456,36 22.7863222,35.3588496 22.7863222,34.5663717 C22.7863222,33.7738938 22.1550456,33.1327434 21.374772,33.1327434 Z" id="形状" fill="#B7F1FF"></path>
            </g>
        </g>
    </g>
</svg>