<?xml version="1.0" encoding="UTF-8"?>
<svg width="60px" height="60px" viewBox="0 0 60 60" version="1.1" xmlns="http://www.w3.org/2000/svg" xmlns:xlink="http://www.w3.org/1999/xlink">
    <title>编组 2</title>
    <g id="页面-1" stroke="none" stroke-width="1" fill="none" fill-rule="evenodd">
        <g id="编组-2">
            <path d="M0,0 L60,0 L60,50 C60,55.5228475 55.5228475,60 50,60 L10,60 C4.4771525,60 -2.87635993e-15,55.5228475 0,50 L0,0 L0,0 Z" id="矩形备份" fill-opacity="0.3" fill="#00040D"></path>
            <g id="编组" transform="translate(12.000000, 12.000000)" stroke="#A2FBFF" stroke-width="3">
                <polyline id="路径-2" stroke-linecap="round" stroke-linejoin="round" points="22.7185408 4.47902717 18.2395136 0 13.7604864 4.47902717"></polyline>
                <polyline id="路径-2备份-3" stroke-linecap="round" stroke-linejoin="round" transform="translate(18.239514, 33.239514) rotate(-180.000000) translate(-18.239514, -33.239514) " points="22.7185408 35.4790272 18.2395136 31 13.7604864 35.4790272"></polyline>
                <polyline id="路径-2备份" stroke-linecap="round" stroke-linejoin="round" transform="translate(34.239514, 18.239514) rotate(-270.000000) translate(-34.239514, -18.239514) " points="38.7185408 20.4790272 34.2395136 16 29.7604864 20.4790272"></polyline>
                <polyline id="路径-2备份-2" stroke-linecap="round" stroke-linejoin="round" transform="translate(2.239514, 18.239514) rotate(-90.000000) translate(-2.239514, -18.239514) " points="6.71854075 20.4790272 2.23951358 16 -2.23951358 20.4790272"></polyline>
                <circle id="椭圆形" cx="18.2395136" cy="17.8472259" r="5.5"></circle>
            </g>
        </g>
    </g>
</svg>