<?xml version="1.0" encoding="UTF-8"?>
<svg width="60px" height="60px" viewBox="0 0 60 60" version="1.1" xmlns="http://www.w3.org/2000/svg" xmlns:xlink="http://www.w3.org/1999/xlink">
    <title>编组 3</title>
    <g id="页面-1" stroke="none" stroke-width="1" fill="none" fill-rule="evenodd">
        <g id="编组-3" transform="translate(0.000000, 0.000000)">
            <path d="M0,0 L60,0 L60,50 C60,55.5228475 55.5228475,60 50,60 L10,60 C4.4771525,60 -2.87635993e-15,55.5228475 0,50 L0,0 L0,0 Z" id="矩形" fill-opacity="0.3" fill="#00040D" transform="translate(30.000000, 30.000000) rotate(-180.000000) translate(-30.000000, -30.000000) "></path>
            <path d="M48.6961875,26.4388125 L48.6961875,17.2513125 L45.69975,20.24775 C42.3015655,15.0991453 36.5452499,12.0008423 30.3763125,12 C20.2280625,12 12,20.22675 12,30.3763125 C12,40.525875 20.2280625,48.7526254 30.3763125,48.7526254 C37.8573734,48.7541155 44.5926983,44.2206439 47.4073125,37.28925 C47.6190259,36.7680553 47.536603,36.1735039 47.1910919,35.7295574 C46.8455807,35.2856109 46.2894726,35.0597154 45.7322481,35.1369636 C45.1750236,35.2142118 44.7013384,35.5828678 44.489625,36.1040625 C42.1563843,41.8472032 36.5753186,45.6033803 30.3763125,45.602625 C21.967125,45.602625 15.15,38.7855 15.15,30.3763125 C15.15,21.967125 21.967125,15.15 30.3763125,15.15 C35.80875,15.15 40.709625,18.024375 43.4199375,22.52625 L39.5086875,26.4388125 L48.6961875,26.4388125 Z" id="路径" fill="#A2FBFF" fill-rule="nonzero"></path>
        </g>
    </g>
</svg>