<?xml version="1.0" encoding="UTF-8"?>
<svg width="35px" height="43px" viewBox="0 0 35 43" version="1.1" xmlns="http://www.w3.org/2000/svg" xmlns:xlink="http://www.w3.org/1999/xlink">
    <title>事件分布</title>
    <defs>
        <path d="M16.6244406,0.000669211278 C25.6549195,-0.0518335735 33.0315608,7.20667642 33.1234407,16.2437183 C33.1496921,19.7810934 32.0208822,23.2331515 29.9076451,26.0748647 C28.0241077,28.5031185 23.5941852,33.0380465 22.9313376,33.8058998 C22.3800583,34.5803158 17.5038622,40.3228079 16.7294461,41.313798 C16.6178777,41.4188036 16.6178777,41.4188036 16.5063093,41.313798 C15.7318932,40.4278135 12.0763868,35.7878799 9.96971259,33.4711945 C7.86303835,31.0429407 4.54223721,27.9452764 2.99340506,25.7401595 C1.01798778,23.0100146 -0.0320679135,19.7154649 0.000746326963,16.3487238 C0.0269977194,11.977867 1.79896671,7.79733275 4.91631955,4.72591984 C8.04023525,1.66106978 12.2470209,-0.0387078773 16.6244406,0.000669211278 Z" id="path-1"></path>
        <filter x="-9.1%" y="-7.2%" width="118.1%" height="114.5%" filterUnits="objectBoundingBox" id="filter-2">
            <feMorphology radius="1" operator="erode" in="SourceAlpha" result="shadowSpreadInner1"></feMorphology>
            <feGaussianBlur stdDeviation="2" in="shadowSpreadInner1" result="shadowBlurInner1"></feGaussianBlur>
            <feOffset dx="0" dy="0" in="shadowBlurInner1" result="shadowOffsetInner1"></feOffset>
            <feComposite in="shadowOffsetInner1" in2="SourceAlpha" operator="arithmetic" k2="-1" k3="1" result="shadowInnerInner1"></feComposite>
            <feColorMatrix values="0 0 0 0 0.443137255   0 0 0 0 1   0 0 0 0 0.901960784  0 0 0 1 0" type="matrix" in="shadowInnerInner1"></feColorMatrix>
        </filter>
    </defs>
    <g id="定稿" stroke="none" stroke-width="1" fill="none" fill-rule="evenodd">
        <g id="背景" transform="translate(-356.000000, -436.000000)" fill-rule="nonzero">
            <g id="事件分布" transform="translate(357.000000, 437.000000)">
                <g id="形状">
                    <use fill="#040C24" xlink:href="#path-1"></use>
                    <use fill="black" fill-opacity="1" filter="url(#filter-2)" xlink:href="#path-1"></use>
                    <use stroke="#71FFE6" stroke-width="1" xlink:href="#path-1"></use>
                </g>
                <path d="M23.714546,16.685984 C24.9644573,14.9661137 25.9247261,13.506543 25.9247261,11.8548238 C25.9247261,9.17279159 23.8073073,7 21.192953,7 C18.5785986,7 16.4616531,9.17421142 16.4616531,11.8548238 C16.4616531,13.3375849 17.2846731,14.7531413 18.3604203,16.2827563 L17.0660214,16.7238458 L14.55768,15.8800019 C14.8671999,15.3276935 15.0659741,14.7924229 15.0659741,14.2164509 C15.0659741,12.6944083 13.9088242,11.4610615 12.4828557,11.4610615 C11.0559407,11.4610615 9.90021061,12.6944083 9.90021061,14.2164509 C9.90021061,14.8520552 10.1614567,15.467782 10.5400743,16.1048061 L10.5287158,16.1062259 L7,24.5086964 L12.331882,22.3680873 L17.1829196,24.5086964 L21.7372157,22.3680873 L27,24.5086964 L23.714546,16.6855108 L23.714546,16.685984 Z M21.1943728,9.4969829 C22.4627416,9.4969829 23.4916349,10.5519061 23.4916349,11.8548238 C23.4916349,13.1582148 22.4617951,14.2150311 21.1943728,14.2150311 C19.9245841,14.2150311 18.8975839,13.1582148 18.8975839,11.8548238 C18.8975839,10.5519061 19.9245841,9.49650962 21.1943728,9.49650962 L21.1943728,9.4969829 Z M12.4847488,12.8780378 C13.1757259,12.8780378 13.7389195,13.4772001 13.7389195,14.2164509 C13.7389195,14.9538087 13.1757259,15.5543908 12.4847488,15.5543908 C11.7918786,15.5543908 11.2305778,14.9538086 11.2305778,14.2164509 C11.2301048,13.4772001 11.7914054,12.8780378 12.4847488,12.8780378 L12.4847488,12.8780378 Z M21.6458742,21.095459 L17.18008,23.154192 L12.4203838,21.095459 L8.86989754,22.8167491 L10.9044937,17.2302468 L11.2357841,17.1630422 C11.6399583,17.7380676 12.0815211,18.3448023 12.4847488,19.0182683 C12.9859438,18.1649589 13.5131688,17.4564708 13.9627771,16.8057219 L17.0688611,17.8672709 L19.0130623,17.1938049 C19.7243901,18.164959 20.4901441,19.190066 21.192953,20.3197662 C21.8517476,19.2430725 22.5332592,18.3036276 23.1717031,17.4323339 L25.223337,22.8849003 L21.6458742,21.095459 L21.6458742,21.095459 Z" id="形状" fill="#E1FFFF"></path>
            </g>
        </g>
    </g>
</svg>