<?xml version="1.0" encoding="UTF-8"?>
<svg width="35px" height="43px" viewBox="0 0 35 43" version="1.1" xmlns="http://www.w3.org/2000/svg" xmlns:xlink="http://www.w3.org/1999/xlink">
    <title>人员情况</title>
    <defs>
        <path d="M16.6244406,0.000669211278 C25.6549195,-0.0518335735 33.0315608,7.20667642 33.1234407,16.2437183 C33.1496921,19.7810934 32.0208822,23.2331515 29.9076451,26.0748647 C28.0241077,28.5031185 23.5941852,33.0380465 22.9313376,33.8058998 C22.3800583,34.5803158 17.5038622,40.3228079 16.7294461,41.313798 C16.6178777,41.4188036 16.6178777,41.4188036 16.5063093,41.313798 C15.7318932,40.4278135 12.0763868,35.7878799 9.96971259,33.4711945 C7.86303835,31.0429407 4.54223721,27.9452764 2.99340506,25.7401595 C1.01798778,23.0100146 -0.0320679135,19.7154649 0.000746326963,16.3487238 C0.0269977194,11.977867 1.79896671,7.79733275 4.91631955,4.72591984 C8.04023525,1.66106978 12.2470209,-0.0387078773 16.6244406,0.000669211278 Z" id="path-1"></path>
        <filter x="-9.1%" y="-7.2%" width="118.1%" height="114.5%" filterUnits="objectBoundingBox" id="filter-2">
            <feMorphology radius="1" operator="erode" in="SourceAlpha" result="shadowSpreadInner1"></feMorphology>
            <feGaussianBlur stdDeviation="2" in="shadowSpreadInner1" result="shadowBlurInner1"></feGaussianBlur>
            <feOffset dx="0" dy="0" in="shadowBlurInner1" result="shadowOffsetInner1"></feOffset>
            <feComposite in="shadowOffsetInner1" in2="SourceAlpha" operator="arithmetic" k2="-1" k3="1" result="shadowInnerInner1"></feComposite>
            <feColorMatrix values="0 0 0 0 0.443137255   0 0 0 0 1   0 0 0 0 0.901960784  0 0 0 1 0" type="matrix" in="shadowInnerInner1"></feColorMatrix>
        </filter>
    </defs>
    <g id="定稿" stroke="none" stroke-width="1" fill="none" fill-rule="evenodd">
        <g id="背景" transform="translate(-229.000000, -534.000000)" fill-rule="nonzero">
            <g id="人员情况" transform="translate(230.000000, 535.000000)">
                <g id="形状">
                    <use fill="#040C24" xlink:href="#path-1"></use>
                    <use fill="black" fill-opacity="1" filter="url(#filter-2)" xlink:href="#path-1"></use>
                    <use stroke="#71FFE6" stroke-width="1" xlink:href="#path-1"></use>
                </g>
                <path d="M18.5582427,8 C18.8702301,8 19.1230962,8.25286611 19.1230962,8.56485356 L19.1230962,8.56485356 L19.1230962,8.91788703 L25.4200837,8.93106695 C25.7316946,8.9316318 25.9838075,9.18449791 25.9838075,9.4959205 L25.9838075,9.4959205 L25.9838075,12.5916946 L26,12.5916946 L26,25.2485565 C26,25.5605439 25.7471339,25.81341 25.4351464,25.81341 L25.4351464,25.81341 L8.56485356,25.81341 C8.25286611,25.81341 8,25.5605439 8,25.2485565 L8,25.2485565 L8.00056485,9.4607113 C8.00056485,9.14834728 8.2541841,8.89529289 8.56654812,8.89585774 L8.56654812,8.89585774 L14.8612762,8.90903766 L14.8612762,8.56485356 C14.8612762,8.25286611 15.1141423,8 15.4261297,8 L15.4261297,8 Z M24.8702929,13.7214017 L9.12970711,13.7214017 L9.12970711,24.6837029 L24.8702929,24.6837029 L24.8702929,13.7214017 Z M14.2467155,14.5016527 C15.7072385,14.5140795 16.904728,15.6942469 16.9374895,17.1543933 C16.9629079,18.2808996 16.2982636,19.2580962 15.337636,19.6922803 C16.074205,19.8858368 16.7495816,20.2714435 17.3023849,20.8242469 C17.9805858,21.5022594 18.4074268,22.3647908 18.5364017,23.2984937 C18.5806485,23.6182008 18.3326778,23.9034519 18.0099582,23.9034519 C17.7433473,23.9034519 17.5204184,23.7057531 17.4831381,23.4417782 C17.2579498,21.8443724 15.8817782,20.6112971 14.2231799,20.6112971 C12.5643933,20.6112971 11.18841,21.8441841 10.9632218,23.4417782 C10.9259414,23.7057531 10.7030126,23.9034519 10.4364017,23.9034519 C10.113682,23.9034519 9.8657113,23.6182008 9.90995816,23.2984937 C10.0389331,22.3647908 10.4657741,21.5024477 11.1439749,20.8242469 C11.6967782,20.2714435 12.3721548,19.8858368 13.1087238,19.6922803 C12.165795,19.2660042 11.5081172,18.3166736 11.5081172,17.2165272 C11.5081172,15.7117573 12.7389331,14.4888494 14.2467155,14.5016527 Z M23.5304603,22.7737448 C23.8424477,22.7737448 24.0953138,23.0266109 24.0953138,23.3385983 C24.0953138,23.6505858 23.8424477,23.9034519 23.5304603,23.9034519 L23.5304603,23.9034519 L20.4900418,23.9034519 C20.1780544,23.9034519 19.9251883,23.6505858 19.9251883,23.3385983 C19.9251883,23.0266109 20.1780544,22.7737448 20.4900418,22.7737448 L20.4900418,22.7737448 Z M23.5304603,20.0197071 C23.8424477,20.0197071 24.0953138,20.2725732 24.0953138,20.5845607 C24.0953138,20.8965481 23.8424477,21.1494142 23.5304603,21.1494142 L23.5304603,21.1494142 L19.8244561,21.1494142 C19.5124686,21.1494142 19.2596025,20.8965481 19.2596025,20.5845607 C19.2596025,20.2725732 19.5124686,20.0197071 19.8244561,20.0197071 L19.8244561,20.0197071 Z M14.3005649,15.5658368 C13.3282636,15.5210251 12.5276778,16.3217992 12.5723013,17.2941004 C12.6112762,18.1419456 13.2977615,18.828431 14.1454184,18.8674059 C15.1177197,18.9122176 15.9183054,18.1114435 15.873682,17.1391423 C15.8347071,16.2912971 15.1482218,15.6048117 14.3005649,15.5658368 Z M23.5304603,17.2656695 C23.8424477,17.2656695 24.0953138,17.5185356 24.0953138,17.830523 C24.0953138,18.1425105 23.8424477,18.3953766 23.5304603,18.3953766 L23.5304603,18.3953766 L18.616046,18.3953766 C18.3040586,18.3953766 18.0511925,18.1423222 18.0511925,17.830523 C18.0511925,17.5185356 18.3040586,17.2656695 18.616046,17.2656695 L18.616046,17.2656695 Z M23.5304603,14.5114435 C23.8424477,14.5114435 24.0953138,14.7643096 24.0953138,15.0762971 C24.0953138,15.3882845 23.8424477,15.6411506 23.5304603,15.6411506 L23.5304603,15.6411506 L18.616046,15.6411506 C18.3040586,15.6411506 18.0511925,15.3882845 18.0511925,15.0762971 C18.0511925,14.7643096 18.3040586,14.5114435 18.616046,14.5114435 L18.616046,14.5114435 Z M17.9933891,9.12970711 L15.9909833,9.12970711 L15.9909833,12.5640167 L17.9933891,12.5640167 L17.9933891,9.12970711 Z M24.8541004,10.0242469 L19.1230962,10.0242469 L19.1230962,12.5538494 L24.8541004,12.5538494 L24.8541004,10.0242469 Z M14.8612762,10.0242469 L9.13027197,10.0242469 L9.13027197,12.5538494 L14.8612762,12.5538494 L14.8612762,10.0242469 Z" id="形状结合" fill="#E1FFFF"></path>
            </g>
        </g>
    </g>
</svg>