<?xml version="1.0" encoding="UTF-8"?>
<svg width="35px" height="43px" viewBox="0 0 35 43" version="1.1" xmlns="http://www.w3.org/2000/svg" xmlns:xlink="http://www.w3.org/1999/xlink">
    <title>泵站</title>
    <defs>
        <path d="M16.6244406,0.000669211278 C25.6549195,-0.0518335735 33.0315608,7.20667642 33.1234407,16.2437183 C33.1496921,19.7810934 32.0208822,23.2331515 29.9076451,26.0748647 C28.0241077,28.5031185 23.5941852,33.0380465 22.9313376,33.8058998 C22.3800583,34.5803158 17.5038622,40.3228079 16.7294461,41.313798 C16.6178777,41.4188036 16.6178777,41.4188036 16.5063093,41.313798 C15.7318932,40.4278135 12.0763868,35.7878799 9.96971259,33.4711945 C7.86303835,31.0429407 4.54223721,27.9452764 2.99340506,25.7401595 C1.01798778,23.0100146 -0.0320679135,19.7154649 0.000746326963,16.3487238 C0.0269977194,11.977867 1.79896671,7.79733275 4.91631955,4.72591984 C8.04023525,1.66106978 12.2470209,-0.0387078773 16.6244406,0.000669211278 Z" id="path-1"></path>
        <filter x="-9.1%" y="-7.2%" width="118.1%" height="114.5%" filterUnits="objectBoundingBox" id="filter-2">
            <feMorphology radius="1" operator="erode" in="SourceAlpha" result="shadowSpreadInner1"></feMorphology>
            <feGaussianBlur stdDeviation="2" in="shadowSpreadInner1" result="shadowBlurInner1"></feGaussianBlur>
            <feOffset dx="0" dy="0" in="shadowBlurInner1" result="shadowOffsetInner1"></feOffset>
            <feComposite in="shadowOffsetInner1" in2="SourceAlpha" operator="arithmetic" k2="-1" k3="1" result="shadowInnerInner1"></feComposite>
            <feColorMatrix values="0 0 0 0 0.443137255   0 0 0 0 1   0 0 0 0 0.901960784  0 0 0 1 0" type="matrix" in="shadowInnerInner1"></feColorMatrix>
        </filter>
    </defs>
    <g id="定稿" stroke="none" stroke-width="1" fill="none" fill-rule="evenodd">
        <g id="背景" transform="translate(-439.000000, -390.000000)" fill-rule="nonzero">
            <g id="泵站" transform="translate(440.000000, 391.000000)">
                <g id="形状">
                    <use fill="#040C24" xlink:href="#path-1"></use>
                    <use fill="black" fill-opacity="1" filter="url(#filter-2)" xlink:href="#path-1"></use>
                    <use stroke="#71FFE6" stroke-width="1" xlink:href="#path-1"></use>
                </g>
                <path d="M26.4387259,22.5254487 C26.2551965,22.525631 26.0831586,22.4361202 25.9779759,22.2857219 C25.5327364,21.6497958 24.8698952,20.8977698 24.2428647,20.9237725 C23.9276388,20.9370019 23.695439,21.138409 23.34349,21.4661801 C22.9379388,21.8432195 22.4333948,22.3124089 21.6403119,22.300548 C20.8999187,22.2893714 20.4722424,21.8701346 20.1285047,21.5332397 C19.8192092,21.2301028 19.6266978,21.0574356 19.2941367,21.0353105 C18.9538204,21.0125011 18.7467111,21.1646398 18.3817606,21.4577406 C17.9832804,21.7770722 17.4880882,22.1741839 16.6865658,22.1741839 L16.6740207,22.1741839 C15.8807096,22.1700782 15.4019403,21.7798094 15.0173737,21.4670925 C14.6601785,21.1758164 14.4569467,21.0245901 14.0981548,21.0369071 C13.744381,21.0492242 13.5397807,21.2104867 13.2085881,21.4944637 C12.8598324,21.7937231 12.4294189,22.1625511 11.7362412,22.1627792 C11.7029395,22.1627792 11.6691816,22.1627792 11.6347394,22.1600421 C10.9324378,22.1244594 10.4976906,21.7421739 10.1482506,21.4349312 C9.84762266,21.1689736 9.6628665,21.0184315 9.39371555,21.0079392 C8.98314631,20.9922007 8.50209601,21.3170066 8.002342,21.9474585 C7.87758059,22.1047752 7.67836881,22.1835825 7.47974781,22.1541943 C7.28112682,22.1248061 7.11327186,21.9916872 7.03941229,21.8049823 C6.96555271,21.6182774 6.99690954,21.4063513 7.12167097,21.2490346 C7.86434511,20.3138491 8.6435143,19.8546958 9.43750961,19.8852604 C10.1183703,19.9117193 10.5462747,20.2880744 10.8902405,20.5905271 C11.2029574,20.8658366 11.3945563,21.0223091 11.6913067,21.0373633 C11.9837232,21.0519613 12.1527409,20.9189825 12.4770906,20.6409359 C12.842041,20.3284471 13.2945796,19.9397749 14.0591507,19.913316 C14.8574798,19.8854885 15.3394425,20.2782664 15.7274304,20.5955452 C16.0823448,20.8847684 16.3015431,21.0485399 16.6799511,21.0517332 L16.6867939,21.0517332 C17.0745538,21.0517332 17.3053849,20.8815751 17.6787748,20.5820876 C18.0786237,20.262756 18.5763248,19.8626791 19.3687235,19.9153688 C20.1346632,19.9648652 20.5680419,20.3891201 20.9149729,20.7312611 C21.2114951,21.0216248 21.3789161,21.1733074 21.6574189,21.177413 C21.9831372,21.1824311 22.2080379,20.988095 22.5782345,20.6439011 C22.9659943,20.2826002 23.4500099,19.8330269 24.1954211,19.8015499 C24.6246941,19.7835305 25.056248,19.9101226 25.4782219,20.1781331 C25.9572194,20.4828667 26.4223031,20.961408 26.8985634,21.6418125 C27.0185489,21.8134028 27.0332021,22.037466 26.9365863,22.2232215 C26.8399704,22.408977 26.6481051,22.5256251 26.4387259,22.5259049 L26.4387259,22.5254487 Z M26.4387259,25.262577 C26.2551965,25.2627593 26.0831586,25.1732485 25.9779759,25.0228502 C25.5327364,24.3869241 24.8698952,23.6348981 24.2428647,23.6609008 C23.9276388,23.6741302 23.695439,23.8755373 23.34349,24.2033084 C22.9379388,24.5803478 22.4333948,25.0495372 21.6403119,25.0376763 C20.8999187,25.0264997 20.4722424,24.6072629 20.1285047,24.270368 C19.8192092,23.9672311 19.6266978,23.7945639 19.2941367,23.7724388 C18.9538204,23.7496294 18.7467111,23.9017681 18.3817606,24.1948689 C17.9832804,24.5142005 17.4880882,24.9113122 16.6865658,24.9113122 L16.6740207,24.9113122 C15.8807096,24.9072066 15.4019403,24.5169377 15.0173737,24.2042208 C14.6601785,23.9129447 14.4569467,23.7617184 14.0981548,23.7740354 C13.744381,23.7863525 13.5397807,23.947615 13.2085881,24.231592 C12.8598324,24.5308514 12.4294189,24.8996794 11.7362412,24.8999075 C11.7029395,24.8999075 11.6691816,24.8999075 11.6347394,24.8971704 C10.9324378,24.8615877 10.4976906,24.4793022 10.1482506,24.1720595 C9.84762266,23.9061019 9.6628665,23.7555598 9.39371555,23.7450675 C8.98314631,23.729329 8.50209601,24.0541349 8.002342,24.6845868 C7.87758059,24.8419035 7.67836881,24.9207108 7.47974781,24.8913226 C7.28112682,24.8619344 7.11327186,24.7288155 7.03941229,24.5421106 C6.96555271,24.3554057 6.99690954,24.1434796 7.12167097,23.9861629 C7.86434511,23.0509774 8.6435143,22.5918241 9.43750961,22.6223887 C10.1183703,22.6488476 10.5462747,23.0252027 10.8902405,23.3276554 C11.2029574,23.6029649 11.3945563,23.7594374 11.6913067,23.7744916 C11.9837232,23.7890896 12.1527409,23.6561108 12.4770906,23.3780642 C12.842041,23.0655754 13.2945796,22.6769032 14.0591507,22.6504443 C14.8574798,22.6226168 15.3394425,23.0153947 15.7274304,23.3326735 C16.0823448,23.6218967 16.3015431,23.7856682 16.6799511,23.7888615 L16.6867939,23.7888615 C17.0745538,23.7888615 17.3053849,23.6187034 17.6787748,23.3192159 C18.0786237,22.9998843 18.5763248,22.5998074 19.3687235,22.6524971 C20.1346632,22.7019935 20.5680419,23.1262484 20.9149729,23.4683894 C21.2114951,23.7587531 21.3789161,23.9104357 21.6574189,23.9145414 C21.9831372,23.9195594 22.2080379,23.7252233 22.5782345,23.3810294 C22.9659943,23.0197285 23.4500099,22.5701552 24.1954211,22.5386782 C24.6246941,22.5206588 25.056248,22.6472509 25.4782219,22.9152614 C25.9572194,23.219995 26.4223031,23.6985363 26.8985634,24.3789408 C27.0185489,24.5505311 27.0332021,24.7745943 26.9365863,24.9603498 C26.8399704,25.1461053 26.6481051,25.2627534 26.4387259,25.2630332 L26.4387259,25.262577 Z M23.9969793,9.05786511 L21.708512,9.05786511 L21.708512,8.02893296 C21.7085121,7.75588503 21.5999818,7.49403375 21.4068222,7.30104529 C21.2136626,7.10805684 20.9517153,6.99975869 20.6786675,7.0000004 L13.3985905,7.0000004 C12.8303269,7.0000004 12.3696583,7.46066942 12.3696583,8.02893296 L12.3696583,9.05786511 L10.0029547,9.05786511 C9.7300254,9.0578651 9.46827791,9.16630145 9.27530914,9.35931299 C9.08234037,9.55232454 8.97402252,9.81409606 8.97402252,10.0870253 L8.97402252,18.4731303 L11.8808528,18.4731303 L11.8808528,13.6240794 C11.8808528,13.3886961 11.9743585,13.1629535 12.1407996,12.9965123 C12.3072407,12.8300712 12.5329834,12.7365655 12.7683667,12.7365655 C13.003908,12.7363234 13.2298851,12.8297222 13.3965236,12.9961895 C13.5631621,13.1626569 13.656793,13.3885379 13.6567929,13.6240794 L13.6567929,18.4731303 L16.3054207,18.4731303 L16.3054207,12.6980177 C16.3054207,12.2078573 16.7027742,11.8105038 17.1929346,11.8105038 C17.6830949,11.8105038 18.0804484,12.2078573 18.0804484,12.6980177 L18.0804484,18.4731303 L20.7299886,18.4731303 L20.7299886,13.6240794 C20.7299886,13.133919 21.1273421,12.7365655 21.6175025,12.7365655 C22.1076628,12.7365655 22.5050163,13.133919 22.5050163,13.6240794 L22.5050163,18.4731303 L25.0261396,18.4731303 L25.0261396,10.0870253 C25.0261396,9.81407508 24.9177105,9.55230415 24.7247055,9.35929916 C24.5317005,9.16629418 24.2699296,9.05786511 23.9969793,9.05786511 Z" id="形状" fill="#E1FFFF"></path>
            </g>
        </g>
    </g>
</svg>