<?xml version="1.0" encoding="UTF-8"?>
<svg width="24px" height="24px" viewBox="0 0 24 24" version="1.1" xmlns="http://www.w3.org/2000/svg" xmlns:xlink="http://www.w3.org/1999/xlink">
    <title>形状</title>
    <g id="页面-1" stroke="none" stroke-width="1" fill="none" fill-rule="evenodd">
        <g id="智能巡河-弹窗" transform="translate(-1604.000000, -363.000000)" fill="#7ACACE" fill-rule="nonzero">
            <path d="M1624.48482,383.484823 C1619.79892,388.171726 1612.20108,388.171726 1607.51518,383.484823 C1602.82827,378.798921 1602.82827,371.201079 1607.51518,366.515177 C1612.20108,361.828274 1619.79892,361.828274 1624.48482,366.515177 C1629.17173,371.201079 1629.17173,378.798921 1624.48482,383.484823 Z M1623.07085,367.929147 C1619.16593,364.024229 1612.83407,364.024229 1608.92915,367.929147 C1605.02423,371.834066 1605.02423,378.165934 1608.92915,382.070853 C1612.83407,385.975771 1619.16593,385.975771 1623.07085,382.070853 C1626.97577,378.165934 1626.97577,371.834066 1623.07085,367.929147 Z M1621.0379,379.860899 L1620.8609,380.037895 C1620.69696,380.202098 1620.47445,380.294367 1620.24241,380.294367 C1620.01038,380.294367 1619.78787,380.202098 1619.62392,380.037895 L1616,376.413971 L1612.46407,379.949897 C1612.07334,380.340354 1611.44006,380.34013 1611.0496,379.949397 C1610.65915,379.558664 1610.65937,378.925384 1611.0501,378.534926 L1614.58603,375 L1610.9621,371.376076 C1610.7979,371.212133 1610.70563,370.989622 1610.70563,370.757588 C1610.70563,370.525554 1610.7979,370.303044 1610.9621,370.139101 L1611.1391,369.962105 C1611.30304,369.797902 1611.52555,369.705633 1611.75759,369.705633 C1611.98962,369.705633 1612.21213,369.797902 1612.37608,369.962105 L1616,373.586029 L1619.53593,370.050103 C1619.9283,369.671139 1620.55199,369.676559 1620.93772,370.062285 C1621.32344,370.44801 1621.32886,371.071703 1620.9499,371.464074 L1617.41397,375 L1621.0379,378.623925 C1621.2021,378.787867 1621.29437,379.010378 1621.29437,379.242412 C1621.29437,379.474446 1621.2021,379.696956 1621.0379,379.860899 L1621.0379,379.860899 Z" id="形状"></path>
        </g>
    </g>
</svg>