<?xml version="1.0" encoding="UTF-8"?>
<svg width="24px" height="24px" viewBox="0 0 24 24" version="1.1" xmlns="http://www.w3.org/2000/svg" xmlns:xlink="http://www.w3.org/1999/xlink">
    <title>形状</title>
    <g id="页面-1" stroke="none" stroke-width="1" fill="none" fill-rule="evenodd">
        <g id="9、13态势感知---改" transform="translate(-2506.000000, -118.000000)" fill="#7ACACE" fill-rule="nonzero">
            <path d="M2526.48482,138.484823 C2521.79892,143.171726 2514.20108,143.171726 2509.51518,138.484823 C2504.82827,133.798921 2504.82827,126.201079 2509.51518,121.515177 C2514.20108,116.828274 2521.79892,116.828274 2526.48482,121.515177 C2531.17173,126.201079 2531.17173,133.798921 2526.48482,138.484823 Z M2525.07085,122.929147 C2521.16593,119.024229 2514.83407,119.024229 2510.92915,122.929147 C2507.02423,126.834066 2507.02423,133.165934 2510.92915,137.070853 C2514.83407,140.975771 2521.16593,140.975771 2525.07085,137.070853 C2528.97577,133.165934 2528.97577,126.834066 2525.07085,122.929147 Z M2523.0379,134.860899 L2522.8609,135.037895 C2522.69696,135.202098 2522.47445,135.294367 2522.24241,135.294367 C2522.01038,135.294367 2521.78787,135.202098 2521.62392,135.037895 L2518,131.413971 L2514.46407,134.949897 C2514.07334,135.340354 2513.44006,135.34013 2513.0496,134.949397 C2512.65915,134.558664 2512.65937,133.925384 2513.0501,133.534926 L2516.58603,130 L2512.9621,126.376076 C2512.7979,126.212133 2512.70563,125.989622 2512.70563,125.757588 C2512.70563,125.525554 2512.7979,125.303044 2512.9621,125.139101 L2513.1391,124.962105 C2513.30304,124.797902 2513.52555,124.705633 2513.75759,124.705633 C2513.98962,124.705633 2514.21213,124.797902 2514.37608,124.962105 L2518,128.586029 L2521.53593,125.050103 C2521.9283,124.671139 2522.55199,124.676559 2522.93772,125.062285 C2523.32344,125.44801 2523.32886,126.071703 2522.9499,126.464074 L2519.41397,130 L2523.0379,133.623925 C2523.2021,133.787867 2523.29437,134.010378 2523.29437,134.242412 C2523.29437,134.474446 2523.2021,134.696956 2523.0379,134.860899 L2523.0379,134.860899 Z" id="形状"></path>
        </g>
    </g>
</svg>