<?xml version="1.0" encoding="UTF-8"?>
<svg width="24px" height="24px" viewBox="0 0 24 24" version="1.1" xmlns="http://www.w3.org/2000/svg" xmlns:xlink="http://www.w3.org/1999/xlink">
    <title>guanbi</title>
    <g id="页面-1" stroke="none" stroke-width="1" fill="none" fill-rule="evenodd">
        <g id="大屏---视频专题-视频查看" transform="translate(-1832.000000, -126.000000)" fill="#D7D7D7" fill-rule="nonzero">
            <g id="guanbi" transform="translate(1832.000000, 126.000000)">
                <path d="M12,0 C18.6273214,0 24,5.37267857 24,12 C24,18.6273214 18.6273214,24 12,24 C5.37267857,24 0,18.6273214 0,12 C0,5.37267857 5.37267857,0 12,0 Z M12,1.92 C6.4329,1.92 1.92,6.4329 1.92,12 C1.92,17.5671 6.4329,22.08 12,22.08 C17.5671,22.08 22.08,17.5671 22.08,12 C22.08,6.4329 17.5671,1.92 12,1.92 Z M14.919144,7.91335314 C15.242878,7.59894718 15.7590723,7.60271969 16.0781763,7.92182371 C16.3972803,8.24092774 16.4010528,8.75712204 16.0866469,9.08085595 L16.0866469,9.08085595 L13.1675028,12 L16.0866469,14.919144 C16.4010528,15.242878 16.3972803,15.7590723 16.0781763,16.0781763 C15.7590723,16.3972803 15.242878,16.4010528 14.919144,16.0866469 L14.919144,16.0866469 L12,13.1675028 L9.08085595,16.0866469 C8.75712204,16.4010528 8.24092774,16.3972803 7.92182371,16.0781763 C7.60271969,15.7590723 7.59894718,15.242878 7.91335314,14.919144 L7.91335314,14.919144 L10.8324972,12 L7.91335314,9.08085595 C7.59894718,8.75712204 7.60271969,8.24092774 7.92182371,7.92182371 C8.24092774,7.60271969 8.75712204,7.59894718 9.08085595,7.91335314 L9.08085595,7.91335314 L12,10.8324972 Z" id="形状结合"></path>
            </g>
        </g>
    </g>
</svg>