<?xml version="1.0" encoding="UTF-8"?>
<svg width="20px" height="20px" viewBox="0 0 20 20" version="1.1" xmlns="http://www.w3.org/2000/svg" xmlns:xlink="http://www.w3.org/1999/xlink">
    <title>编组 15</title>
    <g id="页面-1" stroke="none" stroke-width="1" fill="none" fill-rule="evenodd">
        <g id="智能巡河-弹窗" transform="translate(-210.000000, -899.000000)">
            <g id="编组-15" transform="translate(210.000000, 899.000000)">
                <path d="M8.11797839,5.4976244 C7.67446272,5.48970384 7.30819258,5.84221239 7.29913064,6.2857062 L7.29913064,13.8351985 C7.32255052,14.2709896 7.68274177,14.6123436 8.1191617,14.6123436 C8.55558163,14.6123436 8.91577289,14.2709896 8.93919277,13.8351985 L8.93919277,6.2857062 C8.92884745,5.8418368 8.56189746,5.48969171 8.11797839,5.4976244 L8.11797839,5.4976244 Z M11.8051599,5.4976244 C11.3616443,5.48970384 10.9953741,5.84221239 10.9863122,6.2857062 L10.9863122,13.8351985 C11.009732,14.2709896 11.3699233,14.6123436 11.8063432,14.6123436 C12.2427632,14.6123436 12.6029544,14.2709896 12.6263743,13.8351985 L12.6263743,6.2857062 C12.616029,5.8418368 12.249079,5.48969171 11.8051599,5.4976244 Z" id="形状" fill="#FFFFFF" fill-rule="nonzero"></path>
                <circle id="椭圆形" stroke="#FFFFFF" cx="10" cy="10" r="9.5"></circle>
            </g>
        </g>
    </g>
</svg>