<?xml version="1.0" encoding="UTF-8"?>
<svg width="20px" height="18px" viewBox="0 0 20 18" version="1.1" xmlns="http://www.w3.org/2000/svg" xmlns:xlink="http://www.w3.org/1999/xlink">
    <title>路径</title>
    <g id="页面-1" stroke="none" stroke-width="1" fill="none" fill-rule="evenodd">
        <g id="智能巡河-弹窗" transform="translate(-330.000000, -900.000000)" fill="#FFFFFF" fill-rule="nonzero">
            <path d="M335.094595,907.572809 C335.399526,907.877779 335.423088,908.364427 335.149046,908.69743 L335.094595,908.757116 C334.789625,909.062047 334.302977,909.085609 333.969975,908.811567 L333.910288,908.757116 L330.245325,905.092153 C329.940394,904.787183 329.916832,904.300535 330.190875,903.967533 L330.245325,903.907846 L333.910288,900.242883 C334.226683,899.929129 334.733325,899.917964 335.063234,900.217475 C335.393143,900.516987 335.430852,901.022347 335.149046,901.367503 L335.094595,901.42719 L332.860015,903.66177 L342.8795,903.662294 C346.812006,903.662294 350,906.850288 350,910.782794 C350,914.660848 346.899965,917.814287 343.042853,917.901199 L342.8795,917.903293 L332.931743,917.903293 C332.484672,917.902326 332.117146,917.550459 332.096725,917.103854 C332.076304,916.657248 332.410185,916.273309 332.855303,916.231547 L332.931743,916.227882 L342.8795,916.227882 C345.886864,916.227882 348.324588,913.790158 348.324588,910.782794 C348.324588,907.824645 345.965923,905.417811 343.027146,905.3398 L342.8795,905.337706 L332.860015,905.337182 L335.094595,907.572809 Z" id="路径"></path>
        </g>
    </g>
</svg>