<?xml version="1.0" encoding="UTF-8"?>
<svg width="20px" height="21px" viewBox="0 0 20 21" version="1.1" xmlns="http://www.w3.org/2000/svg" xmlns:xlink="http://www.w3.org/1999/xlink">
    <title>形状结合</title>
    <g id="页面-1" stroke="none" stroke-width="1" fill="none" fill-rule="evenodd">
        <g id="智能巡河-弹窗" transform="translate(-450.000000, -899.000000)" fill="#FFFFFF" fill-rule="nonzero">
            <path d="M460.335121,915.952636 C460.538427,915.952636 460.705987,916.117962 460.705987,916.323503 L460.705987,916.323503 L460.705987,918.70286 C460.705987,918.906166 460.540661,919.073727 460.335121,919.073727 C460.131814,919.073727 459.964254,918.9084 459.964254,918.70286 L459.964254,918.70286 L459.964254,916.323503 C459.964254,916.120197 460.12958,915.952636 460.335121,915.952636 Z M452.068811,910.523682 C452.698838,913.892761 455.431189,916.531278 458.847185,917.022788 L458.847185,917.022788 L458.847185,917.773458 C455.020107,917.270777 451.959339,914.303843 451.313673,910.523682 L451.313673,910.523682 Z M468.697498,910.449955 C468.112154,914.067024 465.317248,916.95353 461.747096,917.672922 L461.747096,917.672922 L461.747096,916.913315 C464.906166,916.21403 467.374888,913.655943 467.944593,910.449955 L467.944593,910.449955 Z M463.849419,902.762288 C464.146559,902.762288 464.387846,903.003575 464.387846,903.300715 C464.387846,903.597855 464.146559,903.839142 463.849419,903.839142 C463.773458,903.839142 463.699732,903.821269 463.632708,903.792225 L463.632708,903.792225 L462.897676,904.58311 L464.311886,906.788204 C464.311886,906.788204 462.27882,908.204647 461.986148,908.474978 L461.986148,908.474978 L465.462466,911.622878 L457.430742,915.845398 L457.426273,915.82529 C457.401698,915.858803 457.374888,915.894549 457.348079,915.928061 C457.398448,915.859818 457.113217,915.559964 456.926389,915.372262 L456.780608,915.226542 C455.770777,914.136282 454.533065,912.927614 454.533065,911.33244 C454.533065,909.799821 455.775246,908.557641 457.307864,908.557641 C458.840483,908.557641 460.082663,909.799821 460.082663,911.33244 C460.082663,911.660858 460.033512,911.971403 459.946381,912.266309 L459.946381,912.266309 L462.98034,910.959339 L460.743968,908.392315 L463.451743,906.689902 L462.399464,904.585344 L462.399464,904.585344 L462.434402,904.550125 C462.445648,904.538808 462.459404,904.524978 462.475372,904.508953 L462.670648,904.313984 C462.882858,904.103181 463.178859,903.812652 463.404826,903.604558 C463.344504,903.517426 463.310992,903.412422 463.310992,903.300715 C463.310992,903.003575 463.552279,902.762288 463.849419,902.762288 Z M457.307864,909.634495 C456.505809,909.634495 455.857909,910.284629 455.857909,911.08445 C455.857909,911.886506 456.508043,912.534406 457.307864,912.534406 C458.10992,912.534406 458.757819,911.884272 458.757819,911.08445 C458.757819,910.284629 458.107685,909.634495 457.307864,909.634495 Z M452.750223,908.664879 C452.95353,908.664879 453.12109,908.830206 453.12109,909.035746 C453.12109,909.241287 452.955764,909.408847 452.750223,909.406613 L452.750223,909.406613 L450.370867,909.406613 C450.16756,909.406613 450,909.241287 450,909.035746 C450,908.83244 450.165326,908.664879 450.370867,908.664879 L450.370867,908.664879 Z M469.629133,908.664879 C469.834674,908.664879 470,908.83244 470,909.035746 C470,909.239053 469.834674,909.406613 469.629133,909.406613 L469.629133,909.406613 L467.249777,909.406613 C467.04647,909.406613 466.87891,909.241287 466.87891,909.035746 C466.87891,908.83244 467.044236,908.664879 467.249777,908.664879 L467.249777,908.664879 Z M458.920912,900.291332 L458.920912,901.042002 C455.444593,901.506702 452.663092,904.19437 452.053172,907.623771 L452.053172,907.623771 L451.300268,907.623771 C451.923592,903.783289 455.035746,900.767203 458.920912,900.291332 L458.920912,900.291332 Z M461.820822,900.416443 C465.330652,901.155943 468.076408,903.993298 468.684093,907.550045 L468.684093,907.550045 L467.928954,907.550045 C467.341376,904.404379 464.919571,901.893208 461.820822,901.178284 L461.820822,901.178284 Z M460.335121,899 C460.538427,899 460.705987,899.165326 460.705987,899.370867 L460.705987,899.370867 L460.705987,901.750223 C460.705987,901.95353 460.540661,902.12109 460.335121,902.12109 C460.12958,902.12109 459.96202,901.955764 459.964254,901.750223 L459.964254,901.750223 L459.964254,899.370867 C459.964254,899.16756 460.12958,899 460.335121,899 Z" id="形状结合"></path>
        </g>
    </g>
</svg>